<svg xmlns="http://www.w3.org/2000/svg" viewBox="0 0 1440 320"><path fill="#00cba9" fill-opacity="1" d="M0,256L34.3,261.3C68.6,267,137,277,206,245.3C274.3,213,343,139,411,96C480,53,549,43,617,74.7C685.7,107,754,181,823,181.3C891.4,181,960,107,1029,101.3C1097.1,96,1166,160,1234,165.3C1302.9,171,1371,117,1406,90.7L1440,64L1440,320L1405.7,320C1371.4,320,1303,320,1234,320C1165.7,320,1097,320,1029,320C960,320,891,320,823,320C754.3,320,686,320,617,320C548.6,320,480,320,411,320C342.9,320,274,320,206,320C137.1,320,69,320,34,320L0,320Z"></path></svg>
