<?xml version="1.0" encoding="UTF-8" standalone="no"?> <svg xmlns="http://www.w3.org/2000/svg" xmlns:xlink="http://www.w3.org/1999/xlink" x="0px" y="0px" width="48px" height="48px" viewBox="0 0 48 48"><g >
<path fill="#444444" d="M8,27H2c-0.553,0-1-0.447-1-1s0.447-1,1-1h6c0.553,0,1,0.447,1,1S8.553,27,8,27z"/>
<path fill="#444444" d="M12.185,15.19c-0.256,0-0.513-0.098-0.708-0.293l-4.185-4.19c-0.39-0.392-0.39-1.024,0.001-1.415&#10;&#9;c0.391-0.389,1.024-0.39,1.415,0.001l4.185,4.19c0.39,0.392,0.39,1.024-0.001,1.415C12.696,15.093,12.44,15.19,12.185,15.19z"/>
<path fill="#444444" d="M35.815,15.19c-0.256,0-0.512-0.098-0.707-0.292c-0.391-0.391-0.391-1.023-0.001-1.415l4.185-4.19&#10;&#9;c0.391-0.391,1.024-0.39,1.415-0.001c0.391,0.391,0.391,1.023,0.001,1.415l-4.185,4.19C36.328,15.093,36.071,15.19,35.815,15.19z"/>
<path fill="#444444" d="M8,45c-0.256,0-0.513-0.098-0.708-0.293c-0.39-0.392-0.39-1.024,0.001-1.415l4.189-4.184&#10;&#9;c0.391-0.389,1.024-0.39,1.415,0.001c0.39,0.392,0.39,1.024-0.001,1.415l-4.189,4.184C8.512,44.902,8.256,45,8,45z"/>
<path fill="#444444" d="M40,45c-0.256,0-0.512-0.098-0.707-0.292l-4.189-4.184c-0.391-0.391-0.391-1.023-0.001-1.415&#10;&#9;c0.391-0.391,1.024-0.39,1.415-0.001l4.189,4.184c0.391,0.391,0.391,1.023,0.001,1.415C40.513,44.902,40.256,45,40,45z"/>
<path fill="#444444" d="M46,27h-6c-0.553,0-1-0.447-1-1s0.447-1,1-1h6c0.553,0,1,0.447,1,1S46.553,27,46,27z"/>
<path fill="#E86C60" d="M32.324,9.555c-0.164-0.108-0.355-0.166-0.552-0.166c-0.001,0-0.001,0-0.002,0L16.188,9.413&#10;&#9;c-0.196,0-0.389,0.059-0.552,0.167C10.31,13.125,7,19.799,7,27c0,11.028,7.626,20,17,20s17-8.972,17-20&#10;&#9;C41,19.777,37.676,13.093,32.324,9.555z"/>
<path fill="#444444" d="M34.707,1.293c-0.391-0.391-1.023-0.391-1.414,0l-3.694,3.694C28.051,3.744,26.1,3,24,3&#10;&#9;s-4.051,0.744-5.599,1.987l-3.694-3.694c-0.391-0.391-1.023-0.391-1.414,0s-0.391,1.023,0,1.414l3.689,3.689&#10;&#9;c-0.993,1.243-1.669,2.757-1.891,4.426c-0.021,0.156-0.004,0.316,0.049,0.466C15.425,12.096,20.198,15,24,15s8.575-2.904,8.86-3.712&#10;&#9;c0.053-0.149,0.069-0.31,0.049-0.466c-0.223-1.669-0.898-3.183-1.891-4.426l3.689-3.689C35.098,2.316,35.098,1.684,34.707,1.293z"/>
<path fill="#444444" d="M24,47c0.338,0,0.667-0.037,1-0.06V14c0-0.553-0.447-1-1-1s-1,0.447-1,1v32.94&#10;&#9;C23.333,46.963,23.662,47,24,47z"/>
<circle fill="#444444" cx="15" cy="23" r="3"/>
<circle fill="#444444" cx="17.5" cy="34.5" r="2.5"/>
<circle fill="#444444" cx="33" cy="23" r="3"/>
<circle fill="#444444" cx="30.5" cy="34.5" r="2.5"/>
</g></svg>