<?xml version="1.0" encoding="utf-8"?>
<!-- Generator: Adobe Illustrator 23.0.3, SVG Export Plug-In . SVG Version: 6.00 Build 0)  -->
<svg version="1.1" id="Icons" xmlns="http://www.w3.org/2000/svg" xmlns:xlink="http://www.w3.org/1999/xlink" x="0px" y="0px"
	 viewBox="0 0 32 32" style="enable-background:new 0 0 32 32;" xml:space="preserve">
<style type="text/css">
	.st0{fill:#FFFFFF;}
	.st1{fill:#3A559F;}
	.st2{fill:#F4F4F4;}
	.st3{fill:#FF0084;}
	.st4{fill:#0063DB;}
	.st5{fill:#00ACED;}
	.st6{fill:#FFEC06;}
	.st7{fill:#FF0000;}
	.st8{fill:#25D366;}
	.st9{fill:#0088FF;}
	.st10{fill:#314358;}
	.st11{fill:#EE6996;}
	.st12{fill:#01AEF3;}
	.st13{fill:#FFFEFF;}
	.st14{fill:#F06A35;}
	.st15{fill:#00ADEF;}
	.st16{fill:#1769FF;}
	.st17{fill:#1AB7EA;}
	.st18{fill:#6001D1;}
	.st19{fill:#E41214;}
	.st20{fill:#05CE78;}
	.st21{fill:#7B519C;}
	.st22{fill:#FF4500;}
	.st23{fill:#00F076;}
	.st24{fill:#FFC900;}
	.st25{fill:#00D6FF;}
	.st26{fill:#FF3A44;}
	.st27{fill:#FF6A36;}
	.st28{fill:#0061FE;}
	.st29{fill:#F7981C;}
	.st30{fill:#EE1B22;}
	.st31{fill:#EF3561;}
	.st32{fill:none;stroke:#FFFFFF;stroke-width:2;stroke-miterlimit:10;}
	.st33{fill:#0097D3;}
	.st34{fill:#01308A;}
	.st35{fill:#019CDE;}
	.st36{fill:#FFD049;}
	.st37{fill:#16A05D;}
	.st38{fill:#4486F4;}
	.st39{fill:none;}
	.st40{fill:#34A853;}
	.st41{fill:#4285F4;}
	.st42{fill:#FBBC05;}
	.st43{fill:#EA4335;}
</style>
<g>
	<g>
		<path class="st28" d="M23.5,24.1l-7-4c-0.3-0.2-0.7-0.2-1,0l-7,4C8.2,24.3,8,24.6,8,25s0.2,0.7,0.5,0.9l7,4C15.7,30,15.8,30,16,30
			s0.3,0,0.5-0.1l7-4c0.3-0.2,0.5-0.5,0.5-0.9S23.8,24.3,23.5,24.1z"/>
		<path class="st28" d="M30.5,16.1L25,13l5.5-3.1C30.8,9.7,31,9.4,31,9s-0.2-0.7-0.5-0.9l-7-4c-0.3-0.2-0.7-0.2-1,0L16,7.8L9.5,4.1
			C9.2,4,8.8,4,8.5,4.1l-7,4C1.2,8.3,1,8.6,1,9s0.2,0.7,0.5,0.9L7,13l-5.5,3.1C1.2,16.3,1,16.6,1,17s0.2,0.7,0.5,0.9l7,4
			C8.7,22,8.8,22,9,22s0.3,0,0.5-0.1l6.5-3.7l6.5,3.7C22.7,22,22.8,22,23,22s0.3,0,0.5-0.1l7-4c0.3-0.2,0.5-0.5,0.5-0.9
			S30.8,16.3,30.5,16.1z M16,10.2l5,2.8l-5,2.8L11,13L16,10.2z"/>
	</g>
</g>
</svg>
