<svg width="24" height="24" viewBox="0 0 24 24" fill="none" xmlns="http://www.w3.org/2000/svg">
<path fill-rule="evenodd" clip-rule="evenodd" d="M2.92999 8.19H21.07V20.89C21.0714 20.9495 21.0606 21.0086 21.0385 21.0638C21.0164 21.119 20.9833 21.1692 20.9412 21.2112C20.8992 21.2533 20.849 21.2864 20.7938 21.3085C20.7386 21.3307 20.6795 21.3414 20.62 21.34H3.37999C3.32052 21.3414 3.26139 21.3307 3.20617 21.3085C3.15096 21.2864 3.10081 21.2533 3.05874 21.2112C3.01668 21.1692 2.98359 21.119 2.96145 21.0638C2.93932 21.0086 2.92862 20.9495 2.92999 20.89V8.19Z" fill="#FFEABB"/>
<path d="M13.32 8L12 15.45L4.20997 20.5C4.12536 20.5492 4.05909 20.6246 4.02119 20.7148C3.9833 20.805 3.97585 20.9052 3.99997 21C4.02798 21.0951 4.08594 21.1785 4.16522 21.238C4.2445 21.2975 4.34087 21.3297 4.43997 21.33H20.62C20.6794 21.3314 20.7386 21.3207 20.7938 21.2985C20.849 21.2764 20.8992 21.2433 20.9412 21.2012C20.9833 21.1592 21.0164 21.109 21.0385 21.0538C21.0606 20.9986 21.0713 20.9395 21.07 20.88V8.18L13.32 8Z" fill="#F7BF75"/>
<path d="M6.50999 5.21999L3.68999 6.84999C3.45907 6.98447 3.2674 7.1771 3.13406 7.40869C3.00072 7.64028 2.93036 7.90275 2.92999 8.16999V8.16999C2.93067 8.44226 2.99636 8.71044 3.1216 8.95221C3.24683 9.19398 3.42799 9.40235 3.64999 9.55999L12 15.45L20.35 9.56998C20.572 9.41235 20.7532 9.20398 20.8784 8.96221C21.0036 8.72044 21.0693 8.45226 21.07 8.17999V8.17999C21.0696 7.91157 20.9982 7.64804 20.8629 7.41618C20.7277 7.18433 20.5335 6.99243 20.3 6.85999L16.9 4.85999L6.50999 5.21999Z" fill="#F1734D"/>
<path d="M6.44999 2.66998C6.21129 2.66998 5.98237 2.7648 5.81359 2.93359C5.64481 3.10237 5.54999 3.33129 5.54999 3.56998V10.91L12 15.45L18.45 10.91V3.56998C18.45 3.33129 18.3552 3.10237 18.1864 2.93359C18.0176 2.7648 17.7887 2.66998 17.55 2.66998H6.44999Z" fill="#EAE2F9"/>
<path d="M15.59 2.66998V8.51998C15.5922 8.84323 15.516 9.16219 15.368 9.44956C15.22 9.73692 15.0045 9.98412 14.74 10.17L9.62 13.77L12 15.45L18.45 10.91V3.56998C18.45 3.33129 18.3552 3.10237 18.1864 2.93359C18.0176 2.7648 17.7887 2.66998 17.55 2.66998H15.59Z" fill="#C0C3EE"/>
<path fill-rule="evenodd" clip-rule="evenodd" d="M2.92999 20.71L11.67 15C11.7684 14.9367 11.883 14.903 12 14.903C12.117 14.903 12.2316 14.9367 12.33 15L21.07 20.67V20.84C21.07 20.9593 21.0226 21.0738 20.9382 21.1582C20.8538 21.2426 20.7393 21.29 20.62 21.29H3.37999C3.26065 21.29 3.14619 21.2426 3.06179 21.1582C2.9774 21.0738 2.92999 20.9593 2.92999 20.84V20.71Z" fill="#F1734D"/>
<path d="M12.6 12.42H11.4C11.2682 12.4225 11.1425 12.476 11.0493 12.5693C10.9561 12.6625 10.9026 12.7882 10.9 12.92C10.9 13.0526 10.9527 13.1798 11.0464 13.2735C11.1402 13.3673 11.2674 13.42 11.4 13.42H12.6C12.7326 13.42 12.8598 13.3673 12.9535 13.2735C13.0473 13.1798 13.1 13.0526 13.1 12.92C13.0974 12.7882 13.0439 12.6625 12.9507 12.5693C12.8575 12.476 12.7318 12.4225 12.6 12.42Z" fill="#F94060"/>
<path d="M13.76 4.70996C13.323 4.47741 12.8436 4.3354 12.3505 4.29245C11.8573 4.24949 11.3606 4.30647 10.89 4.45996C10.054 4.72751 9.3391 5.28132 8.87115 6.02395C8.40319 6.76659 8.21213 7.65046 8.33158 8.52007C8.45103 9.38968 8.87334 10.1893 9.52421 10.7783C10.1751 11.3672 11.0128 11.7077 11.89 11.74V11.74C12.0201 11.7375 12.1444 11.6854 12.2373 11.5943C12.3303 11.5032 12.3849 11.38 12.39 11.25C12.3927 11.119 12.3439 10.9923 12.2542 10.8969C12.1644 10.8015 12.0408 10.7452 11.91 10.74C11.4997 10.7281 11.0974 10.624 10.7329 10.4352C10.3685 10.2464 10.0513 9.97786 9.80498 9.64957C9.55864 9.32127 9.38951 8.94166 9.31014 8.53896C9.23078 8.13627 9.24324 7.72087 9.34659 7.32365C9.44995 6.92644 9.64153 6.55765 9.9071 6.2447C10.1727 5.93176 10.5054 5.68272 10.8805 5.51612C11.2556 5.34952 11.6634 5.26964 12.0737 5.28242C12.4839 5.29521 12.886 5.40033 13.25 5.58996C13.8292 5.85975 14.2789 6.34684 14.5016 6.94577C14.7244 7.5447 14.7022 8.20725 14.44 8.78996V8.78996C14.3919 8.92847 14.3032 9.04929 14.1855 9.13669C14.0678 9.22409 13.9265 9.27401 13.78 9.27996C13.7582 9.27919 13.737 9.27337 13.7179 9.26296C13.6988 9.25254 13.6824 9.23782 13.67 9.21996C13.6086 9.15884 13.5728 9.07657 13.57 8.98996C13.57 8.78996 13.57 6.04996 13.57 6.14996C13.57 6.01735 13.5173 5.89018 13.4235 5.79641C13.3298 5.70264 13.2026 5.64996 13.07 5.64996C12.9504 5.65118 12.8352 5.69523 12.7453 5.77412C12.6554 5.85302 12.5967 5.96153 12.58 6.07996C12.3451 5.94744 12.0797 5.8785 11.81 5.87996C11.2917 5.92833 10.8128 6.17683 10.4748 6.57268C10.1368 6.96853 9.9665 7.48054 9.99998 7.99996C9.95841 8.52594 10.1264 9.04703 10.4673 9.44973C10.8082 9.85243 11.2944 10.1041 11.82 10.15C12.1878 10.1366 12.5402 9.99913 12.82 9.75996C12.8538 9.83234 12.8976 9.89966 12.95 9.95996C13.0565 10.0699 13.1839 10.1576 13.3247 10.2177C13.4655 10.2778 13.6169 10.3091 13.77 10.31C14.1183 10.3048 14.4567 10.1939 14.7407 9.99216C15.0246 9.79038 15.2405 9.50716 15.36 9.17996C15.7264 8.37305 15.7643 7.45516 15.4657 6.62078C15.167 5.78639 14.5552 5.10105 13.76 4.70996V4.70996ZM11.84 9.12996C11.44 9.12996 11.02 8.66996 11.02 7.97996C10.9941 7.72379 11.068 7.4675 11.2263 7.26446C11.3847 7.06142 11.6152 6.92728 11.87 6.88996C12.31 6.88996 12.61 7.32996 12.62 7.94996V7.99996C12.61 8.60996 12.27 9.12996 11.84 9.12996Z" fill="#F94060"/>
</svg>
