<?xml version="1.0" encoding="iso-8859-1"?>
<!-- Generator: Adobe Illustrator 19.0.0, SVG Export Plug-In . SVG Version: 6.00 Build 0)  -->
<svg version="1.1" id="Layer_1" xmlns="http://www.w3.org/2000/svg" xmlns:xlink="http://www.w3.org/1999/xlink" x="0px" y="0px"
	 viewBox="0 0 512 512" style="enable-background:new 0 0 512 512;" xml:space="preserve">
<path style="fill:#E6F3FF;" d="M512,105.739v300.522c0,27.715-22.372,50.087-50.087,50.087H50.087
	C22.372,456.348,0,433.976,0,406.261V105.739c0-0.89,0-1.781,0.111-2.671c1.336-25.6,21.704-45.969,47.304-47.304
	c0.89-0.111,1.781-0.111,2.671-0.111h411.826c0.89,0,1.892,0,2.783,0.111c25.489,1.336,45.857,21.704,47.193,47.193
	C512,103.847,512,104.849,512,105.739z"/>
<path style="fill:#CFDBE6;" d="M464.696,55.763c-0.892-0.111-1.891-0.111-2.783-0.111H256v400.696h205.913
	c27.715,0,50.087-22.372,50.087-50.087V105.739c0-0.89,0-1.892-0.111-2.783C510.553,77.468,490.184,57.099,464.696,55.763z"/>
<path style="fill:#FF4B26;" d="M511.889,102.957c-1.336-25.489-21.704-45.857-47.193-47.193
	C382.89,137.569,336.951,183.509,256,264.459C225.291,233.732,77.61,85.958,47.416,55.763c-25.6,1.336-45.969,21.704-47.304,47.304
	C0,103.958,0,104.849,0,105.739v300.522c0,27.715,22.372,50.087,50.087,50.087h16.696V169.739l165.621,165.51
	c6.456,6.567,15.026,9.795,23.597,9.795c8.57,0,17.141-3.228,23.597-9.795l165.621-165.621v286.72h16.696
	c27.715,0,50.087-22.372,50.087-50.087V105.739C512,104.849,512,103.847,511.889,102.957z"/>
<path style="fill:#D93F21;" d="M279.596,335.249l165.621-165.621v286.72h16.696c27.715,0,50.087-22.372,50.087-50.087V105.739
	c0-0.89,0-1.892-0.111-2.783c-1.336-25.489-21.704-45.857-47.193-47.193C382.891,137.569,336.951,183.509,256,264.459v80.584
	C264.57,345.043,273.141,341.816,279.596,335.249z"/>
<g>
</g>
<g>
</g>
<g>
</g>
<g>
</g>
<g>
</g>
<g>
</g>
<g>
</g>
<g>
</g>
<g>
</g>
<g>
</g>
<g>
</g>
<g>
</g>
<g>
</g>
<g>
</g>
<g>
</g>
</svg>
