<?xml version="1.0" encoding="iso-8859-1"?>
<!-- Generator: Adobe Illustrator 19.0.0, SVG Export Plug-In . SVG Version: 6.00 Build 0)  -->
<svg xmlns="http://www.w3.org/2000/svg" xmlns:xlink="http://www.w3.org/1999/xlink" version="1.1" id="Layer_1" x="0px" y="0px" viewBox="0 0 512 512" style="enable-background:new 0 0 512 512;" xml:space="preserve">
<path style="fill:#FF7976;" d="M184.947,506.376L5.624,327.053c-7.498-7.497-7.498-19.654,0-27.153L299.9,5.624  c3.668-3.671,8.636-5.705,13.86-5.622l176.705,2.612c10.381,0.152,18.76,8.531,18.913,18.912l2.619,176.712  c0.078,5.192-1.949,10.191-5.622,13.861L212.1,506.376C204.601,513.875,192.445,513.874,184.947,506.376z"/>
<path style="fill:#FF5752;" d="M511.997,198.239l-2.619-176.712c-0.077-5.189-2.209-9.878-5.618-13.289L95.286,416.714  l89.661,89.661c7.498,7.498,19.654,7.498,27.153,0L506.375,212.1C510.048,208.43,512.075,203.43,511.997,198.239z"/>
<path style="fill:#FFE365;" d="M184.947,430.4L81.6,327.053c-7.498-7.497-7.498-19.654,0-27.153L299.9,81.599  c7.491-7.493,19.657-7.498,27.153,0l103.348,103.348c7.493,7.491,7.498,19.657,0,27.153L212.1,430.4  C204.603,437.898,192.444,437.899,184.947,430.4z"/>
<path style="fill:#FF5752;" d="M389.089,122.908c-14.856-14.853-14.858-38.898,0.003-53.756  c14.851-14.853,38.899-14.857,53.755,0.001c14.856,14.853,14.858,38.898,0.001,53.755l0,0c0,0-0.003,0.001-0.001,0.001  C427.991,137.768,403.947,137.769,389.089,122.908z"/>
<path style="fill:#FFC733;" d="M430.401,184.947l-51.675-51.675L133.273,378.726l51.674,51.674c7.496,7.5,19.654,7.498,27.153,0  l218.301-218.3C437.899,204.604,437.894,192.438,430.401,184.947z"/>
<path style="fill:#DB3A3C;" d="M442.846,69.153L442.846,69.153l-53.756,53.756c14.858,14.86,38.902,14.858,53.756,0  c-0.001,0,0.001-0.001,0.001-0.001C457.705,108.051,457.701,84.006,442.846,69.153z"/>
<g>
</g>
<g>
</g>
<g>
</g>
<g>
</g>
<g>
</g>
<g>
</g>
<g>
</g>
<g>
</g>
<g>
</g>
<g>
</g>
<g>
</g>
<g>
</g>
<g>
</g>
<g>
</g>
<g>
</g>
</svg>
