<?xml version="1.0" encoding="iso-8859-1"?>
<!-- Generator: Adobe Illustrator 19.0.0, SVG Export Plug-In . SVG Version: 6.00 Build 0)  -->
<svg version="1.1" id="Capa_1" xmlns="http://www.w3.org/2000/svg" xmlns:xlink="http://www.w3.org/1999/xlink" x="0px" y="0px"
	 viewBox="0 0 512 512" style="enable-background:new 0 0 512 512;" xml:space="preserve">
<path style="fill:#ECEFF1;" d="M496,80.011H272c-8.832,0-16,7.168-16,16v320c0,8.832,7.168,16,16,16h224c8.832,0,16-7.168,16-16
	v-320C512,87.179,504.832,80.011,496,80.011z"/>
<g>
	<path style="fill:#F57C00;" d="M432,368.011H272c-8.832,0-16-7.168-16-16s7.168-16,16-16h160c8.832,0,16,7.168,16,16
		S440.832,368.011,432,368.011z"/>
	<path style="fill:#F57C00;" d="M352,144.011c-44.192,0-80,35.808-80,80s35.808,80,80,80s80-35.808,80-80h-80V144.011z"/>
	<path style="fill:#F57C00;" d="M384,112.011v80h80C464,147.819,428.192,112.011,384,112.011z"/>
</g>
<path style="fill:#EF6C00;" d="M282.208,19.691c-3.648-3.04-8.544-4.352-13.152-3.392l-256,48C5.472,65.707,0,72.299,0,80.011v352
	c0,7.68,5.472,14.304,13.056,15.712l256,48c0.96,0.192,1.952,0.288,2.944,0.288c3.712,0,7.328-1.28,10.208-3.68
	c3.68-3.04,5.792-7.584,5.792-12.32v-448C288,27.243,285.888,22.731,282.208,19.691z"/>
<path style="fill:#FAFAFA;" d="M112,368.011c-8.832,0-16-7.168-16-16v-160c0-8.832,7.168-16,16-16h48c35.296,0,64,28.704,64,64
	s-28.704,64-64,64h-32v48C128,360.843,120.832,368.011,112,368.011z M128,272.011h32c17.632,0,32-14.368,32-32s-14.368-32-32-32h-32
	V272.011z"/>
<g>
</g>
<g>
</g>
<g>
</g>
<g>
</g>
<g>
</g>
<g>
</g>
<g>
</g>
<g>
</g>
<g>
</g>
<g>
</g>
<g>
</g>
<g>
</g>
<g>
</g>
<g>
</g>
<g>
</g>
</svg>
