<?xml version="1.0" encoding="UTF-8" standalone="no"?> <svg id="Layer_1" data-name="Layer 1" xmlns="http://www.w3.org/2000/svg" viewBox="0 0 128 128"><defs><style>.cls-1{fill:#2d3e50;}.cls-2{fill:#1d75b8;}</style></defs><title>n</title><path class="cls-1" d="M58.30584,44.66185a34.43474,34.43474,0,0,0-40.25,21.86464c-.50057,1.40282-12.20539,31.3941-16.06167,41.27583a1.72216,1.72216,0,0,0,2.03319,2.29277l23.72481-6.112A34.3852,34.3852,0,1,0,58.30584,44.66185ZM52.99725,95.98008a3.474,3.474,0,0,1-2.472,1.032,3.43775,3.43775,0,0,1-3.38041-3.399,3.38137,3.38137,0,0,1,3.36189-3.399,3.40334,3.40334,0,0,1,2.4905,5.7659Zm3.65852-19.17634-1.05675.93933c-.995.8961-2.05175,1.82309-2.16917,3.37426-.08653,1.13709-.14213,2.32985-.14213,3.64a.71662.71662,0,0,1-.11742.52528c-.02474.02471-.11127.12979-.55.11742-.27192-.01856-.5624-.01856-.83431-.01856H50.33988c-.82813,0-1.681,0-2.50287.01856-.36463,0-.4635-.105-.4635-.4635-.07416-2.54613-.06182-5.44453.87754-7.50865a9.01688,9.01688,0,0,1,3.24447-3.44223,12.3962,12.3962,0,0,0,2.80568-2.577c1.40286-1.922,1.13713-3.44223.66126-4.38156a5.11277,5.11277,0,0,0-4.54224-2.45964,5.43557,5.43557,0,0,0-5.3024,4.122c-.25955.84046-.3337.89606-.65507.89606a6.52626,6.52626,0,0,1-.69215-.068c-1.40286-.19158-2.82424-.3646-4.23943-.53765-.50676-.0556-.58092-.241-.53765-.62418.56854-5.98218,6.38385-9.10923,11.83457-9.10923a12.33855,12.33855,0,0,1,8.2008,2.83661,8.68735,8.68735,0,0,1,3.08379,6.4642C62.09414,72.0081,59.24516,74.51715,56.65576,76.80374Z"/><path class="cls-2" d="M125.957,99.14051l-13.14943-27.6167A38.59883,38.59883,0,1,0,43.45062,37.64393a40.93041,40.93041,0,0,1,9.96033-.493,30.16664,30.16664,0,0,1,51.02953,32.12133l-1.123,1.92471,9.395,19.73584c-6.15139-1.12045-14.65255-2.66035-22.14712-4.01847A40.79147,40.79147,0,0,1,87.899,95.00051c7.60773,1.37491,28.14794,5.10837,36.19989,6.5723A1.71911,1.71911,0,0,0,125.957,99.14051Z"/></svg>