<?xml version="1.0" encoding="UTF-8" standalone="no"?> <svg width="512" height="512" viewBox="0 0 512 512" fill="none" xmlns="http://www.w3.org/2000/svg">
<path d="M412 80H100C97.3733 79.9992 94.7723 80.516 92.3454 81.5208C89.9185 82.5256 87.7134 83.9988 85.8561 85.8561C83.9988 87.7134 82.5256 89.9185 81.5208 92.3454C80.516 94.7723 79.9992 97.3733 80 100V412C79.9992 414.627 80.516 417.228 81.5208 419.655C82.5256 422.081 83.9988 424.287 85.8561 426.144C87.7134 428.001 89.9185 429.474 92.3454 430.479C94.7723 431.484 97.3733 432.001 100 432H412C414.627 432.001 417.228 431.484 419.655 430.479C422.081 429.474 424.287 428.001 426.144 426.144C428.001 424.287 429.474 422.081 430.479 419.655C431.484 417.228 432.001 414.627 432 412V100C432.001 97.3733 431.484 94.7723 430.479 92.3454C429.474 89.9185 428.001 87.7134 426.144 85.8561C424.287 83.9988 422.081 82.5256 419.655 81.5208C417.228 80.516 414.627 79.9992 412 80V80ZM400 400H112V112H400V400Z" fill="#57A4FF"/>
<path d="M496 136C498.122 136 500.157 135.157 501.657 133.657C503.157 132.157 504 130.122 504 128V96C504 93.8783 503.157 91.8434 501.657 90.3431C500.157 88.8429 498.122 88 496 88H437.29C434.51 82.1806 429.819 77.49 424 74.71V16C424 13.8783 423.157 11.8434 421.657 10.3431C420.157 8.84285 418.122 8 416 8H384C381.878 8 379.843 8.84285 378.343 10.3431C376.843 11.8434 376 13.8783 376 16V72H352V16C352 13.8783 351.157 11.8434 349.657 10.3431C348.157 8.84285 346.122 8 344 8H312C309.878 8 307.843 8.84285 306.343 10.3431C304.843 11.8434 304 13.8783 304 16V72H280V16C280 13.8783 279.157 11.8434 277.657 10.3431C276.157 8.84285 274.122 8 272 8H240C237.878 8 235.843 8.84285 234.343 10.3431C232.843 11.8434 232 13.8783 232 16V72H208V16C208 13.8783 207.157 11.8434 205.657 10.3431C204.157 8.84285 202.122 8 200 8H168C165.878 8 163.843 8.84285 162.343 10.3431C160.843 11.8434 160 13.8783 160 16V72H136V16C136 13.8783 135.157 11.8434 133.657 10.3431C132.157 8.84285 130.122 8 128 8H96C93.8783 8 91.8434 8.84285 90.3431 10.3431C88.8429 11.8434 88 13.8783 88 16V74.71C82.1806 77.49 77.49 82.1806 74.71 88H16C13.8783 88 11.8434 88.8429 10.3431 90.3431C8.84285 91.8434 8 93.8783 8 96V128C8 130.122 8.84285 132.157 10.3431 133.657C11.8434 135.157 13.8783 136 16 136H72V160H16C13.8783 160 11.8434 160.843 10.3431 162.343C8.84285 163.843 8 165.878 8 168V200C8 202.122 8.84285 204.157 10.3431 205.657C11.8434 207.157 13.8783 208 16 208H72V232H16C13.8783 232 11.8434 232.843 10.3431 234.343C8.84285 235.843 8 237.878 8 240V272C8 274.122 8.84285 276.157 10.3431 277.657C11.8434 279.157 13.8783 280 16 280H72V304H16C13.8783 304 11.8434 304.843 10.3431 306.343C8.84285 307.843 8 309.878 8 312V344C8 346.122 8.84285 348.157 10.3431 349.657C11.8434 351.157 13.8783 352 16 352H72V376H16C13.8783 376 11.8434 376.843 10.3431 378.343C8.84285 379.843 8 381.878 8 384V416C8 418.122 8.84285 420.157 10.3431 421.657C11.8434 423.157 13.8783 424 16 424H74.71C77.49 429.819 82.1806 434.51 88 437.29V496C88 498.122 88.8429 500.157 90.3431 501.657C91.8434 503.157 93.8783 504 96 504H128C130.122 504 132.157 503.157 133.657 501.657C135.157 500.157 136 498.122 136 496V440H160V496C160 498.122 160.843 500.157 162.343 501.657C163.843 503.157 165.878 504 168 504H200C202.122 504 204.157 503.157 205.657 501.657C207.157 500.157 208 498.122 208 496V440H232V496C232 498.122 232.843 500.157 234.343 501.657C235.843 503.157 237.878 504 240 504H272C274.122 504 276.157 503.157 277.657 501.657C279.157 500.157 280 498.122 280 496V440H304V496C304 498.122 304.843 500.157 306.343 501.657C307.843 503.157 309.878 504 312 504H344C346.122 504 348.157 503.157 349.657 501.657C351.157 500.157 352 498.122 352 496V440H376V496C376 498.122 376.843 500.157 378.343 501.657C379.843 503.157 381.878 504 384 504H416C418.122 504 420.157 503.157 421.657 501.657C423.157 500.157 424 498.122 424 496V437.29C429.819 434.51 434.51 429.819 437.29 424H496C498.122 424 500.157 423.157 501.657 421.657C503.157 420.157 504 418.122 504 416V384C504 381.878 503.157 379.843 501.657 378.343C500.157 376.843 498.122 376 496 376H440V352H496C498.122 352 500.157 351.157 501.657 349.657C503.157 348.157 504 346.122 504 344V312C504 309.878 503.157 307.843 501.657 306.343C500.157 304.843 498.122 304 496 304H440V280H496C498.122 280 500.157 279.157 501.657 277.657C503.157 276.157 504 274.122 504 272V240C504 237.878 503.157 235.843 501.657 234.343C500.157 232.843 498.122 232 496 232H440V208H496C498.122 208 500.157 207.157 501.657 205.657C503.157 204.157 504 202.122 504 200V168C504 165.878 503.157 163.843 501.657 162.343C500.157 160.843 498.122 160 496 160H440V136H496ZM440 104H488V120H440V104ZM72 408H24V392H72V408ZM72 336H24V320H72V336ZM72 264H24V248H72V264ZM72 192H24V176H72V192ZM72 120H24V104H72V120ZM392 24H408V72H392V24ZM320 24H336V72H320V24ZM248 24H264V72H248V24ZM176 24H192V72H176V24ZM104 24H120V72H104V24ZM120 488H104V440H120V488ZM192 488H176V440H192V488ZM264 488H248V440H264V488ZM336 488H320V440H336V488ZM408 488H392V440H408V488ZM424 412C423.997 415.182 422.732 418.232 420.482 420.482C418.232 422.732 415.182 423.997 412 424H100C96.8182 423.997 93.7675 422.732 91.5176 420.482C89.2678 418.232 88.0026 415.182 88 412V100C88.0026 96.8182 89.2678 93.7675 91.5176 91.5176C93.7675 89.2678 96.8182 88.0026 100 88H412C415.182 88.0026 418.232 89.2678 420.482 91.5176C422.732 93.7675 423.997 96.8182 424 100V412ZM488 392V408H440V392H488ZM488 320V336H440V320H488ZM488 248V264H440V248H488ZM488 176V192H440V176H488Z" fill="#004FAC"/>
<path d="M400 104H112C109.878 104 107.843 104.843 106.343 106.343C104.843 107.843 104 109.878 104 112V400C104 402.122 104.843 404.157 106.343 405.657C107.843 407.157 109.878 408 112 408H400C402.122 408 404.157 407.157 405.657 405.657C407.157 404.157 408 402.122 408 400V112C408 109.878 407.157 107.843 405.657 106.343C404.157 104.843 402.122 104 400 104ZM392 392H120V120H392V392Z" fill="#004FAC"/>
</svg>
