<?xml version="1.0" encoding="utf-8"?>
<!-- Generator: Adobe Illustrator 23.0.3, SVG Export Plug-In . SVG Version: 6.00 Build 0)  -->
<svg version="1.1" id="Layer_1" xmlns="http://www.w3.org/2000/svg" xmlns:xlink="http://www.w3.org/1999/xlink" x="0px" y="0px"
	 viewBox="0 0 69.6 69.6" style="enable-background:new 0 0 69.6 69.6;" xml:space="preserve">
<style type="text/css">
	.st0{fill:#28B0EE;}
	.st1{fill:#00A25F;}
	.st2{fill:#BBAA7C;}
	.st3{fill:#010101;}
	.st4{fill:#020202;}
	.st5{fill:#3ACE01;}
	.st6{fill:#040404;}
	.st7{fill:#050505;}
	.st8{fill:#00B3F6;}
	.st9{fill:#0456B8;}
	.st10{fill:#0354BD;}
	.st11{fill:#9FDA55;}
	.st12{fill:#FFAA0C;}
	.st13{fill:#E81D52;}
	.st14{fill:#FF563B;}
	.st15{fill:#F50028;}
	.st16{fill:#FFA116;}
	.st17{fill:url(#SVGID_1_);}
	.st18{fill:url(#SVGID_2_);}
	.st19{fill:url(#SVGID_3_);}
	.st20{fill:url(#SVGID_4_);}
	.st21{fill:url(#SVGID_5_);}
	.st22{fill:url(#SVGID_6_);}
	.st23{fill:url(#SVGID_7_);}
	.st24{fill:url(#SVGID_8_);}
	.st25{fill:url(#SVGID_9_);}
</style>
<g>
	<path class="st8" d="M62.6,6.3C43.2,14,23.9,21.7,4.5,29.4c-1.4,0.6-2.8,1.2-2.8,2.9c0,1.9,1.5,2.5,3,3c4.2,1.6,8.4,3.3,12.7,4.8
		c1.4,0.5,2,1.2,2.3,2.6c1.1,4.7,2.4,9.4,3.7,14.1c0.8,3,2.4,3.5,4.9,1.8c2-1.4,4.1-2.8,6-4.4c1.6-1.4,2.7-1.3,4.4-0.1
		c4.3,3.1,8.7,6,13.1,9c3.1,2.1,4.7,1.4,5.5-2.3c0.1-0.3,0.1-0.7,0.2-1c2.2-11.3,4.3-22.6,6.5-33.9c1.1-5.8,2.2-11.6,3.3-17.3
		C67.2,6.2,65.4,5.2,62.6,6.3z M15.9,34c-1.4-0.4-2.7-1-4.6-1.8C25.3,26.7,38.7,21.4,52.2,16c0.1,0.1,0.1,0.2,0.2,0.4
		c-9.1,8.7-18.1,17.5-27.2,26.2C24.7,36.9,20.3,35.4,15.9,34z M26.4,48.1c-0.2-0.7-0.3-1.4-0.6-2.6c2.2,1.5,4.1,2.8,6,4
		C27.7,53,27.7,53,26.4,48.1z M52.6,57.4c-7-4.7-13.7-9.3-20.7-14c9.5-9.1,18.9-18.2,28.6-27.6C57.8,29.9,55.2,43.5,52.6,57.4z"/>
</g>
</svg>
