<?xml version="1.0" encoding="UTF-8" standalone="no"?> <svg id="Layer_1" data-name="Layer 1" xmlns="http://www.w3.org/2000/svg" viewBox="0 0 48 48"><defs><style>.cls-1{fill:#eaeff0;}.cls-2{fill:#d9e1e2;}.cls-3{fill:#009ae0;}.cls-4{fill:#0081bd;}</style></defs><title>Website</title><circle class="cls-1" cx="24" cy="24" r="21"/><path class="cls-2" d="M30,37A18.984,18.984,0,0,1,16.906,4.255,20.988,20.988,0,1,0,43.745,31.094,18.927,18.927,0,0,1,30,37Z"/><path class="cls-3" d="M24,2A22,22,0,1,0,46,24,22.025,22.025,0,0,0,24,2ZM42.318,32H36.13a36.237,36.237,0,0,0,.841-7h6.978A19.837,19.837,0,0,1,42.318,32ZM4.051,25h6.978a36.237,36.237,0,0,0,.841,7H5.682A19.837,19.837,0,0,1,4.051,25Zm1.631-9H11.87a36.237,36.237,0,0,0-.841,7H4.051A19.837,19.837,0,0,1,5.682,16ZM25,14V4.092c3.639.6,6.764,4.436,8.512,9.908Zm9.075,2a33.983,33.983,0,0,1,.9,7H25V16ZM23,4.092V14H14.488C16.236,8.528,19.361,4.692,23,4.092ZM23,16v7H13.028a33.983,33.983,0,0,1,.9-7Zm-9.972,9H23v7H13.925A33.983,33.983,0,0,1,13.028,25ZM23,34v9.908c-3.639-.6-6.764-4.436-8.512-9.908Zm2,9.908V34h8.512C31.764,39.472,28.639,43.308,25,43.908ZM25,32V25h9.972a33.983,33.983,0,0,1-.9,7Zm11.971-9a36.237,36.237,0,0,0-.841-7h6.188a19.837,19.837,0,0,1,1.631,7Zm4.323-9H35.613a21.216,21.216,0,0,0-4.761-8.765A20.081,20.081,0,0,1,41.294,14ZM17.148,5.235A21.216,21.216,0,0,0,12.387,14H6.706A20.081,20.081,0,0,1,17.148,5.235ZM6.706,34h5.681a21.216,21.216,0,0,0,4.761,8.765A20.081,20.081,0,0,1,6.706,34Zm24.146,8.765A21.216,21.216,0,0,0,35.613,34h5.681A20.081,20.081,0,0,1,30.852,42.765Z"/><path class="cls-4" d="M40.22,34h1.074a20.081,20.081,0,0,1-10.442,8.765,19.471,19.471,0,0,0,3.942-6.4,18.824,18.824,0,0,1-2.376.463C30.6,40.766,27.973,43.418,25,43.908V36.313a18.878,18.878,0,0,1-2-.661v8.256c-3.639-.6-6.764-4.436-8.512-9.908H19.78a18.941,18.941,0,0,1-2.593-2H13.925a32.893,32.893,0,0,1-.809-5.312,18.84,18.84,0,0,1-1.933-6.19c-.074.82-.132,1.651-.154,2.5H4.051a19.837,19.837,0,0,1,1.631-7h5.425a18.772,18.772,0,0,1,.323-2H6.706a20.086,20.086,0,0,1,8.515-7.928A19.07,19.07,0,0,1,18.9,2.6,22,22,0,1,0,45.4,29.1,19.068,19.068,0,0,1,40.22,34ZM4.051,25h6.978a36.237,36.237,0,0,0,.841,7H5.682A19.837,19.837,0,0,1,4.051,25Zm2.655,9h5.681a21.216,21.216,0,0,0,4.761,8.765A20.081,20.081,0,0,1,6.706,34Z"/></svg>