<svg xmlns="http://www.w3.org/2000/svg" width="880" height="400" viewBox="0 0 880 400" font-family="'Segoe UI','Helvetica Neue',Helvetica,Arial,'DejaVu Sans',sans-serif">
  <defs>
    <pattern id="dots" width="22" height="22" patternUnits="userSpaceOnUse">
      <circle cx="1.1" cy="1.1" r="1.1" fill="#1F2328" opacity="0.04"/>
    </pattern>
  </defs>

  <!-- Background -->
  <rect x="0.5" y="0.5" width="879" height="399" rx="16" fill="#FFFFFF" stroke="#D0D7DE"/>
  <rect x="1" y="1" width="878" height="398" rx="15" fill="url(#dots)"/>

  <!-- Section label -->
  <rect x="44" y="30" width="22" height="3" rx="1.5" fill="#9A6F12"/>
  <text x="44" y="54" font-size="11" fill="#9A6F12" font-weight="bold" font-family="'SF Mono','JetBrains Mono','Roboto Mono','DejaVu Sans Mono',monospace" letter-spacing="2.8">MEASURED IMPACT</text>
  <text x="836" y="54" font-size="11" fill="#656D76" font-family="'SF Mono','JetBrains Mono','Roboto Mono','DejaVu Sans Mono',monospace" text-anchor="end">from production systems · MyMedicalHub</text>

  <!-- Separator -->
  <rect x="44" y="68" width="792" height="1" fill="#D0D7DE"/>

  <!-- Row 1 -->
  <!-- Card 1: -70% Cloud cost -->
  <rect x="44" y="86" width="248" height="128" rx="11" fill="#F6F8FA" stroke="#D0D7DE"/>
  <rect x="44" y="86" width="3" height="128" rx="1.5" fill="#9A6F12" opacity="0.55"/>
  <text x="64" y="128" font-size="30" fill="#9A6F12" font-weight="bold" font-family="'SF Mono','JetBrains Mono','Roboto Mono','DejaVu Sans Mono',monospace">−70%</text>
  <text x="64" y="152" font-size="14" fill="#1F2328" font-weight="bold">Cloud cost</text>
  <text x="64" y="172" font-size="11" fill="#656D76">Azure VMs → App Service,</text>
  <text x="64" y="187" font-size="11" fill="#656D76">automated CI/CD</text>

  <!-- Card 2: +40% App performance -->
  <rect x="316" y="86" width="248" height="128" rx="11" fill="#F6F8FA" stroke="#D0D7DE"/>
  <rect x="316" y="86" width="3" height="128" rx="1.5" fill="#9A6F12" opacity="0.55"/>
  <text x="336" y="128" font-size="30" fill="#9A6F12" font-weight="bold" font-family="'SF Mono','JetBrains Mono','Roboto Mono','DejaVu Sans Mono',monospace">+40%</text>
  <text x="336" y="152" font-size="14" fill="#1F2328" font-weight="bold">App performance</text>
  <text x="336" y="172" font-size="11" fill="#656D76">replaced 5 legacy UI libs,</text>
  <text x="336" y="187" font-size="11" fill="#656D76">optimized render cycles</text>

  <!-- Card 3: 99.9% Engine reliability -->
  <rect x="588" y="86" width="248" height="128" rx="11" fill="#F6F8FA" stroke="#D0D7DE"/>
  <rect x="588" y="86" width="3" height="128" rx="1.5" fill="#9A6F12" opacity="0.55"/>
  <text x="608" y="128" font-size="30" fill="#9A6F12" font-weight="bold" font-family="'SF Mono','JetBrains Mono','Roboto Mono','DejaVu Sans Mono',monospace">99.9%</text>
  <text x="608" y="152" font-size="14" fill="#1F2328" font-weight="bold">Engine reliability</text>
  <text x="608" y="172" font-size="11" fill="#656D76">FSM on MediaPipe,</text>
  <text x="608" y="187" font-size="11" fill="#656D76">60 FPS pose estimation</text>

  <!-- Row 2 -->
  <!-- Card 4: -25% Diagnosis time -->
  <rect x="44" y="232" width="248" height="128" rx="11" fill="#F6F8FA" stroke="#D0D7DE"/>
  <rect x="44" y="232" width="3" height="128" rx="1.5" fill="#9A6F12" opacity="0.55"/>
  <text x="64" y="274" font-size="30" fill="#9A6F12" font-weight="bold" font-family="'SF Mono','JetBrains Mono','Roboto Mono','DejaVu Sans Mono',monospace">−25%</text>
  <text x="64" y="298" font-size="14" fill="#1F2328" font-weight="bold">Diagnosis time</text>
  <text x="64" y="318" font-size="11" fill="#656D76">real-time AI analysis</text>
  <text x="64" y="333" font-size="11" fill="#656D76">at 95% accuracy</text>

  <!-- Card 5: 250+ Client configs -->
  <rect x="316" y="232" width="248" height="128" rx="11" fill="#F6F8FA" stroke="#D0D7DE"/>
  <rect x="316" y="232" width="3" height="128" rx="1.5" fill="#9A6F12" opacity="0.55"/>
  <text x="336" y="274" font-size="30" fill="#9A6F12" font-weight="bold" font-family="'SF Mono','JetBrains Mono','Roboto Mono','DejaVu Sans Mono',monospace">250+</text>
  <text x="336" y="298" font-size="14" fill="#1F2328" font-weight="bold">Client configs</text>
  <text x="336" y="318" font-size="11" fill="#656D76">multi-tenant feature flags</text>
  <text x="336" y="333" font-size="11" fill="#656D76">+ dynamic theming</text>

  <!-- Card 6: 54+ Modules refactored -->
  <rect x="588" y="232" width="248" height="128" rx="11" fill="#F6F8FA" stroke="#D0D7DE"/>
  <rect x="588" y="232" width="3" height="128" rx="1.5" fill="#9A6F12" opacity="0.55"/>
  <text x="608" y="274" font-size="30" fill="#9A6F12" font-weight="bold" font-family="'SF Mono','JetBrains Mono','Roboto Mono','DejaVu Sans Mono',monospace">54+</text>
  <text x="608" y="298" font-size="14" fill="#1F2328" font-weight="bold">Modules refactored</text>
  <text x="608" y="318" font-size="11" fill="#656D76">to Presentational /</text>
  <text x="608" y="333" font-size="11" fill="#656D76">Container architecture</text>
</svg>