<svg width="115.365" height="13.425" viewBox="0 0 115.365 13.425" xmlns="http://www.w3.org/2000/svg"><g id="svgGroup" stroke-linecap="round" fill-rule="evenodd" font-size="9pt" stroke="#000" stroke-width="0.25mm" fill="black" style="stroke:#000;stroke-width:0.25mm;fill:black"><path d="M 1.425 11.025 L 0 11.025 L 0 0.525 L 1.425 0.525 L 1.425 5.01 L 6.6 5.01 L 6.6 0.525 L 8.025 0.525 L 8.025 11.025 L 6.6 11.025 L 6.6 6.24 L 1.425 6.24 L 1.425 11.025 Z" id="0" vector-effect="non-scaling-stroke"/><path d="M 11.925 11.025 L 10.575 11.025 L 10.575 3.225 L 11.925 3.225 L 11.925 11.025 Z M 10.596 1.618 A 0.896 0.896 0 0 0 11.25 1.89 A 1.226 1.226 0 0 0 11.474 1.87 A 0.847 0.847 0 0 0 11.94 1.628 A 0.867 0.867 0 0 0 12.154 1.258 A 1.127 1.127 0 0 0 12.195 0.945 A 1.091 1.091 0 0 0 12.195 0.933 A 0.909 0.909 0 0 0 11.917 0.278 A 1.109 1.109 0 0 0 11.909 0.269 A 0.909 0.909 0 0 0 11.25 0 A 1.24 1.24 0 0 0 11.002 0.024 A 0.849 0.849 0 0 0 10.56 0.255 A 0.838 0.838 0 0 0 10.339 0.65 A 1.198 1.198 0 0 0 10.305 0.945 A 0.899 0.899 0 0 0 10.379 1.308 A 0.996 0.996 0 0 0 10.582 1.605 A 1.12 1.12 0 0 0 10.596 1.618 Z" id="1" vector-effect="non-scaling-stroke"/><path d="M 14.31 13.425 L 13.575 13.005 A 8.699 8.699 0 0 0 14.234 12.043 A 7.277 7.277 0 0 0 14.543 11.46 A 6.753 6.753 0 0 0 14.901 10.511 A 8.766 8.766 0 0 0 15.105 9.675 L 16.425 10.05 A 5.103 5.103 0 0 1 16.126 11.242 A 4.294 4.294 0 0 1 15.713 12.045 Q 15.15 12.9 14.31 13.425 Z" id="2" vector-effect="non-scaling-stroke"/><path d="M 24.9 11.025 L 23.475 11.025 L 23.475 0.525 L 24.9 0.525 L 24.9 11.025 Z" id="4" vector-effect="non-scaling-stroke"/><path d="M 27.915 3.855 L 26.85 3.855 L 26.73 0.525 L 28.035 0.525 L 27.915 3.855 Z" id="5" vector-effect="non-scaling-stroke"/><path d="M 31.05 11.025 L 29.7 11.025 L 29.7 3.225 L 31.005 3.225 L 31.005 4.53 Q 31.425 3.9 32.07 3.473 A 2.581 2.581 0 0 1 33.45 3.046 A 3.128 3.128 0 0 1 33.54 3.045 Q 34.47 3.045 35.063 3.495 Q 35.655 3.945 35.895 4.695 Q 36.36 4.005 36.998 3.525 A 2.35 2.35 0 0 1 38.016 3.093 A 3.217 3.217 0 0 1 38.58 3.045 A 3.216 3.216 0 0 1 39.313 3.123 Q 39.851 3.249 40.224 3.578 A 1.949 1.949 0 0 1 40.477 3.848 A 2.849 2.849 0 0 1 40.989 4.938 Q 41.086 5.339 41.098 5.805 A 5.189 5.189 0 0 1 41.1 5.94 L 41.1 11.025 L 39.75 11.025 L 39.75 6.045 Q 39.75 5.235 39.375 4.733 A 1.196 1.196 0 0 0 38.503 4.238 A 1.602 1.602 0 0 0 38.34 4.23 A 1.789 1.789 0 0 0 37.326 4.549 A 2.399 2.399 0 0 0 37.088 4.733 Q 36.51 5.235 36.075 5.91 L 36.075 11.025 L 34.725 11.025 L 34.725 6.045 Q 34.725 5.235 34.35 4.733 A 1.196 1.196 0 0 0 33.478 4.238 A 1.602 1.602 0 0 0 33.315 4.23 A 1.803 1.803 0 0 0 32.367 4.504 A 2.437 2.437 0 0 0 32.07 4.718 Q 31.485 5.205 31.05 5.865 L 31.05 11.025 Z" id="6" vector-effect="non-scaling-stroke"/><path d="M 49.425 11.025 L 48.075 11.025 L 48.075 0.525 L 50.07 0.525 L 52.98 7.17 L 55.845 0.525 L 57.885 0.525 L 57.885 11.025 L 56.46 11.025 L 56.46 2.34 L 53.655 8.655 L 52.245 8.655 L 49.425 2.34 L 49.425 11.025 Z" id="8" vector-effect="non-scaling-stroke"/><path d="M 63.72 11.205 Q 62.61 11.205 61.725 10.688 Q 60.84 10.17 60.338 9.248 A 4.118 4.118 0 0 1 59.875 7.778 A 5.223 5.223 0 0 1 59.835 7.125 A 5.251 5.251 0 0 1 59.933 6.089 A 3.903 3.903 0 0 1 60.345 4.95 Q 60.855 4.035 61.74 3.54 A 3.925 3.925 0 0 1 63.483 3.051 A 4.699 4.699 0 0 1 63.72 3.045 A 4.161 4.161 0 0 1 64.996 3.236 A 3.727 3.727 0 0 1 65.693 3.54 Q 66.57 4.035 67.088 4.943 A 3.869 3.869 0 0 1 67.532 6.209 A 5.181 5.181 0 0 1 67.605 7.095 Q 67.605 8.34 67.095 9.263 Q 66.585 10.185 65.708 10.695 Q 64.83 11.205 63.72 11.205 Z M 63.72 10.005 Q 64.905 10.005 65.565 9.203 A 2.82 2.82 0 0 0 66.138 7.989 A 4.066 4.066 0 0 0 66.225 7.125 A 3.206 3.206 0 0 0 66.041 6.032 A 3.002 3.002 0 0 0 65.895 5.693 A 2.88 2.88 0 0 0 65.269 4.857 A 2.726 2.726 0 0 0 65.003 4.643 Q 64.44 4.245 63.72 4.245 A 2.887 2.887 0 0 0 62.936 4.346 A 2.106 2.106 0 0 0 61.875 5.025 A 2.682 2.682 0 0 0 61.324 6.131 Q 61.215 6.571 61.215 7.095 Q 61.215 7.875 61.545 8.543 A 2.916 2.916 0 0 0 62.074 9.299 A 2.644 2.644 0 0 0 62.438 9.608 Q 63 10.005 63.72 10.005 Z" id="9" vector-effect="non-scaling-stroke"/><path d="M 70.755 11.025 L 69.405 11.025 L 69.405 3.225 L 70.71 3.225 L 70.71 4.53 Q 71.13 3.9 71.783 3.473 A 2.597 2.597 0 0 1 72.848 3.079 A 3.394 3.394 0 0 1 73.335 3.045 A 3.484 3.484 0 0 1 74.095 3.123 Q 74.596 3.235 74.962 3.509 A 1.989 1.989 0 0 1 75.307 3.84 A 2.761 2.761 0 0 1 75.848 4.947 Q 75.96 5.4 75.96 5.94 L 75.96 11.025 L 74.61 11.025 L 74.61 6.09 A 2.89 2.89 0 0 0 74.559 5.529 Q 74.467 5.067 74.213 4.74 Q 73.815 4.23 73.11 4.23 A 1.968 1.968 0 0 0 72.083 4.525 A 2.603 2.603 0 0 0 71.805 4.718 Q 71.19 5.205 70.755 5.865 L 70.755 11.025 Z" id="10" vector-effect="non-scaling-stroke"/><path d="M 78.585 8.34 L 78.585 4.68 L 77.235 4.68 L 77.235 3.51 L 78.615 3.51 L 78.9 1.05 L 79.935 1.05 L 79.935 3.51 L 82.095 3.51 L 82.095 4.68 L 79.935 4.68 L 79.935 8.445 Q 79.935 9.216 80.224 9.575 A 0.833 0.833 0 0 0 80.303 9.66 Q 80.67 10.005 81.18 10.005 Q 81.555 10.005 81.893 9.885 A 3.86 3.86 0 0 0 82.369 9.68 A 3.415 3.415 0 0 0 82.515 9.6 L 82.89 10.68 A 2.782 2.782 0 0 1 82.647 10.809 Q 82.527 10.865 82.385 10.921 A 6.505 6.505 0 0 1 82.08 11.033 Q 81.57 11.205 81.015 11.205 A 3.401 3.401 0 0 1 80.997 11.205 Q 79.885 11.199 79.238 10.463 A 2.417 2.417 0 0 1 78.753 9.577 Q 78.639 9.213 78.602 8.772 A 5.217 5.217 0 0 1 78.585 8.34 Z" id="11" vector-effect="non-scaling-stroke"/><path d="M 89.28 3.855 L 89.28 3.225 L 90.51 3.225 L 90.51 9.135 A 1.822 1.822 0 0 0 90.525 9.38 Q 90.575 9.746 90.788 9.878 Q 91.065 10.05 91.395 10.05 L 91.11 11.1 A 2.658 2.658 0 0 1 90.47 11.029 Q 89.596 10.812 89.37 9.93 A 3.196 3.196 0 0 1 88.904 10.444 A 4.275 4.275 0 0 1 88.433 10.808 Q 87.84 11.205 86.925 11.205 Q 85.95 11.205 85.155 10.71 Q 84.36 10.215 83.888 9.308 A 4.084 4.084 0 0 1 83.493 8.116 A 5.497 5.497 0 0 1 83.415 7.17 A 4.971 4.971 0 0 1 83.565 5.93 A 4.195 4.195 0 0 1 83.887 5.07 Q 84.36 4.14 85.193 3.593 A 3.345 3.345 0 0 1 86.872 3.052 A 4.108 4.108 0 0 1 87.105 3.045 A 3.388 3.388 0 0 1 87.824 3.119 A 2.805 2.805 0 0 1 88.328 3.278 A 3.9 3.9 0 0 1 88.971 3.622 A 3.315 3.315 0 0 1 89.28 3.855 Z M 89.16 9.03 L 89.16 4.845 Q 88.755 4.56 88.268 4.388 Q 87.78 4.215 87.24 4.215 A 2.389 2.389 0 0 0 86.494 4.328 A 2.104 2.104 0 0 0 85.973 4.583 Q 85.425 4.95 85.11 5.603 A 3.099 3.099 0 0 0 84.847 6.454 A 4.152 4.152 0 0 0 84.795 7.125 A 3.835 3.835 0 0 0 84.874 7.918 A 3.051 3.051 0 0 0 85.11 8.618 A 2.64 2.64 0 0 0 85.576 9.3 A 2.354 2.354 0 0 0 85.98 9.638 Q 86.535 10.005 87.225 10.005 Q 87.795 10.005 88.305 9.728 Q 88.815 9.45 89.16 9.03 Z" id="12" vector-effect="non-scaling-stroke"/><path d="M 92.52 10.395 L 93.09 9.27 A 2.784 2.784 0 0 0 93.562 9.589 Q 93.793 9.715 94.068 9.816 A 4.326 4.326 0 0 0 94.073 9.818 A 3.611 3.611 0 0 0 95.214 10.033 A 4.12 4.12 0 0 0 95.34 10.035 Q 96.149 10.035 96.575 9.778 A 1.161 1.161 0 0 0 96.608 9.758 A 1.117 1.117 0 0 0 96.838 9.564 A 0.758 0.758 0 0 0 97.035 9.045 A 1.068 1.068 0 0 0 96.988 8.723 A 0.932 0.932 0 0 0 96.878 8.49 Q 96.72 8.25 96.3 8.018 Q 95.921 7.808 95.235 7.567 A 15.54 15.54 0 0 0 95.085 7.515 A 6.992 6.992 0 0 1 94.425 7.254 Q 94.108 7.108 93.857 6.944 A 2.9 2.9 0 0 1 93.442 6.623 A 1.699 1.699 0 0 1 92.948 5.723 A 2.519 2.519 0 0 1 92.895 5.19 A 1.818 1.818 0 0 1 93.487 3.838 A 2.619 2.619 0 0 1 93.683 3.668 Q 94.47 3.045 95.865 3.045 Q 96.603 3.045 97.181 3.197 A 3.795 3.795 0 0 1 97.2 3.203 A 5.815 5.815 0 0 1 97.82 3.406 A 4.667 4.667 0 0 1 98.25 3.6 L 97.875 4.71 Q 97.47 4.47 96.953 4.32 A 3.754 3.754 0 0 0 96.28 4.193 A 4.776 4.776 0 0 0 95.805 4.17 A 3.095 3.095 0 0 0 95.365 4.199 Q 94.902 4.266 94.62 4.485 A 1.398 1.398 0 0 0 94.416 4.676 Q 94.215 4.911 94.215 5.175 A 0.738 0.738 0 0 0 94.439 5.708 A 1.062 1.062 0 0 0 94.53 5.79 Q 94.84 6.041 95.73 6.335 A 12.669 12.669 0 0 0 95.76 6.345 A 10.163 10.163 0 0 1 96.519 6.63 Q 97.241 6.937 97.655 7.279 A 2.242 2.242 0 0 1 97.83 7.44 A 2.04 2.04 0 0 1 98.413 8.827 A 2.684 2.684 0 0 1 98.415 8.94 Q 98.415 9.99 97.568 10.598 A 3.008 3.008 0 0 1 96.611 11.044 Q 96.03 11.205 95.295 11.205 A 5.998 5.998 0 0 1 94.416 11.143 A 4.642 4.642 0 0 1 93.697 10.98 A 4.633 4.633 0 0 1 93.121 10.757 Q 92.824 10.618 92.587 10.445 A 2.734 2.734 0 0 1 92.52 10.395 Z" id="13" vector-effect="non-scaling-stroke"/><path d="M 101.565 11.025 L 100.215 11.025 L 100.215 3.225 L 101.565 3.225 L 101.565 11.025 Z M 100.236 1.618 A 0.896 0.896 0 0 0 100.89 1.89 A 1.226 1.226 0 0 0 101.114 1.87 A 0.847 0.847 0 0 0 101.58 1.628 A 0.867 0.867 0 0 0 101.794 1.258 A 1.127 1.127 0 0 0 101.835 0.945 A 1.091 1.091 0 0 0 101.835 0.933 A 0.909 0.909 0 0 0 101.557 0.278 A 1.109 1.109 0 0 0 101.549 0.269 A 0.909 0.909 0 0 0 100.89 0 A 1.24 1.24 0 0 0 100.642 0.024 A 0.849 0.849 0 0 0 100.2 0.255 A 0.838 0.838 0 0 0 99.979 0.65 A 1.198 1.198 0 0 0 99.945 0.945 A 0.899 0.899 0 0 0 100.019 1.308 A 0.996 0.996 0 0 0 100.222 1.605 A 1.12 1.12 0 0 0 100.236 1.618 Z" id="14" vector-effect="non-scaling-stroke"/><path d="M 105.315 11.025 L 103.965 11.025 L 103.965 3.225 L 105.27 3.225 L 105.27 4.53 Q 105.69 3.9 106.335 3.473 A 2.581 2.581 0 0 1 107.715 3.046 A 3.128 3.128 0 0 1 107.805 3.045 Q 108.735 3.045 109.328 3.495 Q 109.92 3.945 110.16 4.695 Q 110.625 4.005 111.263 3.525 A 2.35 2.35 0 0 1 112.281 3.093 A 3.217 3.217 0 0 1 112.845 3.045 A 3.216 3.216 0 0 1 113.578 3.123 Q 114.116 3.249 114.489 3.578 A 1.949 1.949 0 0 1 114.742 3.848 A 2.849 2.849 0 0 1 115.254 4.938 Q 115.351 5.339 115.363 5.805 A 5.189 5.189 0 0 1 115.365 5.94 L 115.365 11.025 L 114.015 11.025 L 114.015 6.045 Q 114.015 5.235 113.64 4.733 A 1.196 1.196 0 0 0 112.768 4.238 A 1.602 1.602 0 0 0 112.605 4.23 A 1.789 1.789 0 0 0 111.591 4.549 A 2.399 2.399 0 0 0 111.353 4.733 Q 110.775 5.235 110.34 5.91 L 110.34 11.025 L 108.99 11.025 L 108.99 6.045 Q 108.99 5.235 108.615 4.733 A 1.196 1.196 0 0 0 107.743 4.238 A 1.602 1.602 0 0 0 107.58 4.23 A 1.803 1.803 0 0 0 106.632 4.504 A 2.437 2.437 0 0 0 106.335 4.718 Q 105.75 5.205 105.315 5.865 L 105.315 11.025 Z" id="15" vector-effect="non-scaling-stroke"/></g></svg>