<svg width="138.438" height="16.11" viewBox="0 0 138.438 16.11" xmlns="http://www.w3.org/2000/svg"><g id="svgGroup" stroke-linecap="round" fill-rule="evenodd" font-size="9pt" stroke="#000" stroke-width="0.25mm" fill="black" style="stroke:#000;stroke-width:0.25mm;fill:black"><path d="M 1.71 13.23 L 0 13.23 L 0 0.63 L 1.71 0.63 L 1.71 6.012 L 7.92 6.012 L 7.92 0.63 L 9.63 0.63 L 9.63 13.23 L 7.92 13.23 L 7.92 7.488 L 1.71 7.488 L 1.71 13.23 Z" id="0" vector-effect="non-scaling-stroke"/><path d="M 14.31 13.23 L 12.69 13.23 L 12.69 3.87 L 14.31 3.87 L 14.31 13.23 Z M 12.715 1.942 A 1.075 1.075 0 0 0 13.5 2.268 A 1.472 1.472 0 0 0 13.769 2.245 A 1.016 1.016 0 0 0 14.328 1.953 A 1.04 1.04 0 0 0 14.584 1.509 A 1.352 1.352 0 0 0 14.634 1.134 A 1.308 1.308 0 0 0 14.634 1.12 A 1.091 1.091 0 0 0 14.301 0.333 Q 13.968 0 13.5 0 A 1.487 1.487 0 0 0 13.202 0.029 A 1.019 1.019 0 0 0 12.672 0.306 Q 12.366 0.612 12.366 1.134 Q 12.366 1.584 12.699 1.926 A 1.344 1.344 0 0 0 12.715 1.942 Z" id="1" vector-effect="non-scaling-stroke"/><path d="M 17.172 16.11 L 16.29 15.606 A 10.439 10.439 0 0 0 17.081 14.452 A 8.733 8.733 0 0 0 17.451 13.752 A 8.104 8.104 0 0 0 17.882 12.614 A 10.519 10.519 0 0 0 18.126 11.61 L 19.71 12.06 A 6.123 6.123 0 0 1 19.351 13.491 A 5.153 5.153 0 0 1 18.855 14.454 Q 18.18 15.48 17.172 16.11 Z" id="2" vector-effect="non-scaling-stroke"/><path d="M 29.88 13.23 L 28.17 13.23 L 28.17 0.63 L 29.88 0.63 L 29.88 13.23 Z" id="4" vector-effect="non-scaling-stroke"/><path d="M 33.498 4.626 L 32.22 4.626 L 32.076 0.63 L 33.642 0.63 L 33.498 4.626 Z" id="5" vector-effect="non-scaling-stroke"/><path d="M 37.26 13.23 L 35.64 13.23 L 35.64 3.87 L 37.206 3.87 L 37.206 5.436 Q 37.71 4.68 38.484 4.167 A 3.097 3.097 0 0 1 40.14 3.656 A 3.755 3.755 0 0 1 40.248 3.654 A 3.779 3.779 0 0 1 41.043 3.733 Q 41.581 3.849 41.991 4.133 A 2.363 2.363 0 0 1 42.075 4.194 A 2.835 2.835 0 0 1 43.056 5.578 A 3.447 3.447 0 0 1 43.074 5.634 Q 43.632 4.806 44.397 4.23 A 2.82 2.82 0 0 1 45.619 3.711 A 3.86 3.86 0 0 1 46.296 3.654 Q 47.826 3.654 48.573 4.617 Q 49.281 5.529 49.318 6.966 A 6.228 6.228 0 0 1 49.32 7.128 L 49.32 13.23 L 47.7 13.23 L 47.7 7.254 Q 47.7 6.436 47.381 5.879 A 1.977 1.977 0 0 0 47.25 5.679 A 1.435 1.435 0 0 0 46.204 5.086 A 1.922 1.922 0 0 0 46.008 5.076 A 2.147 2.147 0 0 0 44.791 5.459 A 2.879 2.879 0 0 0 44.505 5.679 Q 43.812 6.282 43.29 7.092 L 43.29 13.23 L 41.67 13.23 L 41.67 7.254 Q 41.67 6.436 41.351 5.879 A 1.977 1.977 0 0 0 41.22 5.679 A 1.435 1.435 0 0 0 40.174 5.086 A 1.922 1.922 0 0 0 39.978 5.076 A 2.164 2.164 0 0 0 38.841 5.405 A 2.924 2.924 0 0 0 38.484 5.661 Q 37.782 6.246 37.26 7.038 L 37.26 13.23 Z" id="6" vector-effect="non-scaling-stroke"/><path d="M 59.31 13.23 L 57.69 13.23 L 57.69 0.63 L 60.084 0.63 L 63.576 8.604 L 67.014 0.63 L 69.462 0.63 L 69.462 13.23 L 67.752 13.23 L 67.752 2.808 L 64.386 10.386 L 62.694 10.386 L 59.31 2.808 L 59.31 13.23 Z" id="8" vector-effect="non-scaling-stroke"/><path d="M 74.909 13.205 A 4.899 4.899 0 0 0 76.464 13.446 Q 77.796 13.446 78.849 12.834 Q 79.902 12.222 80.514 11.115 A 4.726 4.726 0 0 0 80.992 9.83 A 6.153 6.153 0 0 0 81.126 8.514 A 6.218 6.218 0 0 0 81.039 7.451 A 4.643 4.643 0 0 0 80.505 5.931 Q 79.884 4.842 78.831 4.248 A 4.473 4.473 0 0 0 77.996 3.883 A 4.993 4.993 0 0 0 76.464 3.654 A 5.638 5.638 0 0 0 76.18 3.661 A 4.71 4.71 0 0 0 74.088 4.248 Q 73.026 4.842 72.414 5.94 A 4.684 4.684 0 0 0 71.919 7.306 A 6.301 6.301 0 0 0 71.802 8.55 Q 71.802 9.99 72.405 11.097 Q 73.008 12.204 74.07 12.825 A 4.421 4.421 0 0 0 74.909 13.205 Z M 76.464 12.006 A 3.373 3.373 0 0 0 77.405 11.882 A 2.52 2.52 0 0 0 78.678 11.043 A 3.384 3.384 0 0 0 79.365 9.587 A 4.879 4.879 0 0 0 79.47 8.55 A 3.848 3.848 0 0 0 79.25 7.239 A 3.603 3.603 0 0 0 79.074 6.831 A 3.456 3.456 0 0 0 78.323 5.829 A 3.271 3.271 0 0 0 78.003 5.571 Q 77.328 5.094 76.464 5.094 A 3.465 3.465 0 0 0 75.523 5.215 A 2.527 2.527 0 0 0 74.25 6.03 Q 73.458 6.966 73.458 8.514 Q 73.458 9.45 73.854 10.251 A 3.499 3.499 0 0 0 74.489 11.158 A 3.173 3.173 0 0 0 74.925 11.529 Q 75.6 12.006 76.464 12.006 Z" id="9" vector-effect="non-scaling-stroke"/><path d="M 84.906 13.23 L 83.286 13.23 L 83.286 3.87 L 84.852 3.87 L 84.852 5.436 Q 85.356 4.68 86.139 4.167 A 3.117 3.117 0 0 1 87.418 3.695 A 4.073 4.073 0 0 1 88.002 3.654 Q 89.586 3.654 90.369 4.608 A 3.313 3.313 0 0 1 91.018 5.936 Q 91.152 6.48 91.152 7.128 L 91.152 13.23 L 89.532 13.23 L 89.532 7.308 A 3.468 3.468 0 0 0 89.47 6.635 Q 89.391 6.236 89.211 5.922 A 1.974 1.974 0 0 0 89.055 5.688 A 1.544 1.544 0 0 0 87.925 5.085 A 2.171 2.171 0 0 0 87.732 5.076 A 2.362 2.362 0 0 0 86.499 5.43 A 3.124 3.124 0 0 0 86.166 5.661 Q 85.428 6.246 84.906 7.038 L 84.906 13.23 Z" id="10" vector-effect="non-scaling-stroke"/><path d="M 94.302 10.008 L 94.302 5.616 L 92.682 5.616 L 92.682 4.212 L 94.338 4.212 L 94.68 1.26 L 95.922 1.26 L 95.922 4.212 L 98.514 4.212 L 98.514 5.616 L 95.922 5.616 L 95.922 10.134 Q 95.922 11.059 96.268 11.49 A 1 1 0 0 0 96.363 11.592 Q 96.804 12.006 97.416 12.006 Q 97.866 12.006 98.271 11.862 A 4.632 4.632 0 0 0 98.843 11.616 A 4.098 4.098 0 0 0 99.018 11.52 L 99.468 12.816 A 3.338 3.338 0 0 1 99.177 12.97 Q 98.888 13.107 98.496 13.239 Q 97.884 13.446 97.218 13.446 A 3.299 3.299 0 0 1 96.285 13.321 A 2.508 2.508 0 0 1 95.085 12.555 Q 94.429 11.809 94.323 10.527 A 6.26 6.26 0 0 1 94.302 10.008 Z" id="11" vector-effect="non-scaling-stroke"/><path d="M 107.136 4.626 L 107.136 3.87 L 108.612 3.87 L 108.612 10.962 A 2.187 2.187 0 0 0 108.63 11.257 Q 108.69 11.695 108.945 11.853 Q 109.278 12.06 109.674 12.06 L 109.332 13.32 A 3.19 3.19 0 0 1 108.564 13.235 Q 107.55 12.983 107.263 11.985 A 2.446 2.446 0 0 1 107.244 11.916 Q 106.83 12.492 106.119 12.969 A 2.687 2.687 0 0 1 105.227 13.348 Q 104.809 13.446 104.31 13.446 Q 103.14 13.446 102.186 12.852 Q 101.232 12.258 100.665 11.169 A 4.901 4.901 0 0 1 100.192 9.739 A 6.596 6.596 0 0 1 100.098 8.604 A 5.966 5.966 0 0 1 100.277 7.116 A 5.034 5.034 0 0 1 100.665 6.084 Q 101.232 4.968 102.231 4.311 A 4.014 4.014 0 0 1 104.246 3.662 A 4.93 4.93 0 0 1 104.526 3.654 A 4.065 4.065 0 0 1 105.389 3.742 A 3.367 3.367 0 0 1 105.993 3.933 A 4.68 4.68 0 0 1 106.765 4.346 A 3.979 3.979 0 0 1 107.136 4.626 Z M 106.992 10.836 L 106.992 5.814 Q 106.506 5.472 105.921 5.265 Q 105.336 5.058 104.688 5.058 A 2.866 2.866 0 0 0 103.793 5.194 A 2.524 2.524 0 0 0 103.167 5.499 A 2.934 2.934 0 0 0 102.264 6.475 A 3.593 3.593 0 0 0 102.132 6.723 A 3.719 3.719 0 0 0 101.816 7.745 A 4.982 4.982 0 0 0 101.754 8.55 Q 101.754 9.558 102.132 10.341 A 3.168 3.168 0 0 0 102.691 11.159 A 2.825 2.825 0 0 0 103.176 11.565 Q 103.842 12.006 104.67 12.006 Q 105.354 12.006 105.966 11.673 A 3.501 3.501 0 0 0 106.816 11.034 A 3.253 3.253 0 0 0 106.992 10.836 Z" id="12" vector-effect="non-scaling-stroke"/><path d="M 111.024 12.474 L 111.708 11.124 Q 112.174 11.519 112.882 11.779 A 5.156 5.156 0 0 0 112.887 11.781 A 4.333 4.333 0 0 0 114.257 12.04 A 4.944 4.944 0 0 0 114.408 12.042 A 4.88 4.88 0 0 0 114.963 12.013 Q 115.536 11.947 115.89 11.733 A 1.393 1.393 0 0 0 115.929 11.709 A 1.341 1.341 0 0 0 116.205 11.476 A 0.909 0.909 0 0 0 116.442 10.854 A 1.282 1.282 0 0 0 116.385 10.468 A 1.118 1.118 0 0 0 116.253 10.188 A 1.149 1.149 0 0 0 116.086 9.991 Q 115.891 9.804 115.56 9.621 A 5.123 5.123 0 0 0 115.201 9.442 Q 114.758 9.241 114.102 9.018 Q 112.788 8.568 112.131 7.947 A 2.038 2.038 0 0 1 111.538 6.868 A 3.023 3.023 0 0 1 111.474 6.228 A 2.182 2.182 0 0 1 112.185 4.605 A 3.143 3.143 0 0 1 112.419 4.401 Q 113.212 3.774 114.517 3.674 A 6.755 6.755 0 0 1 115.038 3.654 A 7.343 7.343 0 0 1 115.838 3.696 Q 116.254 3.741 116.617 3.837 A 4.549 4.549 0 0 1 116.64 3.843 A 6.979 6.979 0 0 1 117.384 4.087 A 5.6 5.6 0 0 1 117.9 4.32 L 117.45 5.652 A 4.415 4.415 0 0 0 116.79 5.334 A 5.434 5.434 0 0 0 116.343 5.184 A 4.504 4.504 0 0 0 115.536 5.032 A 5.731 5.731 0 0 0 114.966 5.004 Q 114.366 5.004 113.95 5.16 A 1.532 1.532 0 0 0 113.544 5.382 A 1.678 1.678 0 0 0 113.3 5.611 Q 113.058 5.893 113.058 6.21 A 0.886 0.886 0 0 0 113.327 6.849 A 1.275 1.275 0 0 0 113.436 6.948 Q 113.814 7.254 114.912 7.614 Q 116.694 8.208 117.396 8.928 A 2.447 2.447 0 0 1 118.095 10.592 A 3.221 3.221 0 0 1 118.098 10.728 A 2.497 2.497 0 0 1 117.907 11.721 Q 117.673 12.267 117.153 12.664 A 2.992 2.992 0 0 1 117.081 12.717 A 3.609 3.609 0 0 1 115.933 13.252 Q 115.454 13.386 114.887 13.427 A 7.276 7.276 0 0 1 114.354 13.446 A 7.198 7.198 0 0 1 113.299 13.372 A 5.571 5.571 0 0 1 112.437 13.176 Q 111.582 12.906 111.024 12.474 Z" id="13" vector-effect="non-scaling-stroke"/><path d="M 121.878 13.23 L 120.258 13.23 L 120.258 3.87 L 121.878 3.87 L 121.878 13.23 Z M 120.283 1.942 A 1.075 1.075 0 0 0 121.068 2.268 A 1.472 1.472 0 0 0 121.337 2.245 A 1.016 1.016 0 0 0 121.896 1.953 A 1.04 1.04 0 0 0 122.152 1.509 A 1.352 1.352 0 0 0 122.202 1.134 A 1.308 1.308 0 0 0 122.202 1.12 A 1.091 1.091 0 0 0 121.869 0.333 Q 121.536 0 121.068 0 A 1.487 1.487 0 0 0 120.77 0.029 A 1.019 1.019 0 0 0 120.24 0.306 Q 119.934 0.612 119.934 1.134 Q 119.934 1.584 120.267 1.926 A 1.344 1.344 0 0 0 120.283 1.942 Z" id="14" vector-effect="non-scaling-stroke"/><path d="M 126.378 13.23 L 124.758 13.23 L 124.758 3.87 L 126.324 3.87 L 126.324 5.436 Q 126.828 4.68 127.602 4.167 A 3.097 3.097 0 0 1 129.258 3.656 A 3.755 3.755 0 0 1 129.366 3.654 A 3.779 3.779 0 0 1 130.161 3.733 Q 130.699 3.849 131.109 4.133 A 2.363 2.363 0 0 1 131.193 4.194 A 2.835 2.835 0 0 1 132.174 5.578 A 3.447 3.447 0 0 1 132.192 5.634 Q 132.75 4.806 133.515 4.23 A 2.82 2.82 0 0 1 134.737 3.711 A 3.86 3.86 0 0 1 135.414 3.654 Q 136.944 3.654 137.691 4.617 Q 138.399 5.529 138.436 6.966 A 6.228 6.228 0 0 1 138.438 7.128 L 138.438 13.23 L 136.818 13.23 L 136.818 7.254 Q 136.818 6.436 136.499 5.879 A 1.977 1.977 0 0 0 136.368 5.679 A 1.435 1.435 0 0 0 135.322 5.086 A 1.922 1.922 0 0 0 135.126 5.076 A 2.147 2.147 0 0 0 133.909 5.459 A 2.879 2.879 0 0 0 133.623 5.679 Q 132.93 6.282 132.408 7.092 L 132.408 13.23 L 130.788 13.23 L 130.788 7.254 Q 130.788 6.436 130.469 5.879 A 1.977 1.977 0 0 0 130.338 5.679 A 1.435 1.435 0 0 0 129.292 5.086 A 1.922 1.922 0 0 0 129.096 5.076 A 2.164 2.164 0 0 0 127.959 5.405 A 2.924 2.924 0 0 0 127.602 5.661 Q 126.9 6.246 126.378 7.038 L 126.378 13.23 Z" id="15" vector-effect="non-scaling-stroke"/></g></svg>