<svg width="169.202" height="19.69" viewBox="0 0 169.202 19.69" xmlns="http://www.w3.org/2000/svg"><g id="svgGroup" stroke-linecap="round" fill-rule="evenodd" font-size="9pt" stroke="#000" stroke-width="0.25mm" fill="orange" style="stroke:#000;stroke-width:0.25mm;fill:orange"><path d="M 2.09 16.17 L 0 16.17 L 0 0.77 L 2.09 0.77 L 2.09 7.348 L 9.68 7.348 L 9.68 0.77 L 11.77 0.77 L 11.77 16.17 L 9.68 16.17 L 9.68 9.152 L 2.09 9.152 L 2.09 16.17 Z" id="0" vector-effect="non-scaling-stroke"/><path d="M 17.49 16.17 L 15.51 16.17 L 15.51 4.73 L 17.49 4.73 L 17.49 16.17 Z M 15.54 2.374 A 1.314 1.314 0 0 0 16.5 2.772 A 1.799 1.799 0 0 0 16.829 2.743 A 1.242 1.242 0 0 0 17.512 2.387 A 1.271 1.271 0 0 0 17.825 1.844 A 1.652 1.652 0 0 0 17.886 1.386 Q 17.886 0.814 17.479 0.407 A 1.623 1.623 0 0 0 17.466 0.395 A 1.333 1.333 0 0 0 16.5 0 A 1.818 1.818 0 0 0 16.136 0.035 A 1.245 1.245 0 0 0 15.488 0.374 A 1.229 1.229 0 0 0 15.164 0.953 A 1.757 1.757 0 0 0 15.114 1.386 A 1.318 1.318 0 0 0 15.222 1.918 A 1.462 1.462 0 0 0 15.521 2.354 A 1.644 1.644 0 0 0 15.54 2.374 Z" id="1" vector-effect="non-scaling-stroke"/><path d="M 20.988 19.69 L 19.91 19.074 A 12.759 12.759 0 0 0 20.877 17.663 A 10.673 10.673 0 0 0 21.329 16.808 Q 21.868 15.664 22.154 14.19 L 24.09 14.74 A 7.484 7.484 0 0 1 23.651 16.489 A 6.298 6.298 0 0 1 23.045 17.666 Q 22.22 18.92 20.988 19.69 Z" id="2" vector-effect="non-scaling-stroke"/><path d="M 36.52 16.17 L 34.43 16.17 L 34.43 0.77 L 36.52 0.77 L 36.52 16.17 Z" id="4" vector-effect="non-scaling-stroke"/><path d="M 40.942 5.654 L 39.38 5.654 L 39.204 0.77 L 41.118 0.77 L 40.942 5.654 Z" id="5" vector-effect="non-scaling-stroke"/><path d="M 45.54 16.17 L 43.56 16.17 L 43.56 4.73 L 45.474 4.73 L 45.474 6.644 Q 46.09 5.72 47.036 5.093 Q 47.982 4.466 49.192 4.466 Q 50.477 4.466 51.323 5.052 A 2.888 2.888 0 0 1 51.425 5.126 A 3.465 3.465 0 0 1 52.623 6.818 A 4.214 4.214 0 0 1 52.646 6.886 Q 53.328 5.874 54.263 5.17 A 3.447 3.447 0 0 1 55.757 4.536 A 4.718 4.718 0 0 1 56.584 4.466 Q 58.454 4.466 59.367 5.643 Q 60.28 6.82 60.28 8.712 L 60.28 16.17 L 58.3 16.17 L 58.3 8.866 A 4.189 4.189 0 0 0 58.226 8.055 Q 58.13 7.569 57.91 7.186 A 2.416 2.416 0 0 0 57.75 6.941 A 1.754 1.754 0 0 0 56.471 6.216 A 2.349 2.349 0 0 0 56.232 6.204 A 2.624 2.624 0 0 0 54.745 6.672 A 3.519 3.519 0 0 0 54.395 6.941 Q 53.548 7.678 52.91 8.668 L 52.91 16.17 L 50.93 16.17 L 50.93 8.866 A 4.189 4.189 0 0 0 50.856 8.055 Q 50.76 7.569 50.54 7.186 A 2.416 2.416 0 0 0 50.38 6.941 A 1.754 1.754 0 0 0 49.101 6.216 A 2.349 2.349 0 0 0 48.862 6.204 A 2.644 2.644 0 0 0 47.472 6.606 A 3.574 3.574 0 0 0 47.036 6.919 Q 46.178 7.634 45.54 8.602 L 45.54 16.17 Z" id="6" vector-effect="non-scaling-stroke"/><path d="M 72.49 16.17 L 70.51 16.17 L 70.51 0.77 L 73.436 0.77 L 77.704 10.516 L 81.906 0.77 L 84.898 0.77 L 84.898 16.17 L 82.808 16.17 L 82.808 3.432 L 78.694 12.694 L 76.626 12.694 L 72.49 3.432 L 72.49 16.17 Z" id="8" vector-effect="non-scaling-stroke"/><path d="M 91.555 16.14 A 5.987 5.987 0 0 0 93.456 16.434 A 6.76 6.76 0 0 0 93.956 16.416 A 5.557 5.557 0 0 0 96.371 15.686 Q 97.658 14.938 98.406 13.585 A 5.776 5.776 0 0 0 98.99 12.014 A 7.52 7.52 0 0 0 99.154 10.406 A 7.599 7.599 0 0 0 99.047 9.106 A 5.675 5.675 0 0 0 98.395 7.249 Q 97.636 5.918 96.349 5.192 A 5.467 5.467 0 0 0 95.328 4.746 A 6.102 6.102 0 0 0 93.456 4.466 A 6.891 6.891 0 0 0 93.108 4.475 A 5.757 5.757 0 0 0 90.552 5.192 Q 89.254 5.918 88.506 7.26 A 5.725 5.725 0 0 0 87.901 8.93 A 7.701 7.701 0 0 0 87.758 10.45 Q 87.758 12.21 88.495 13.563 Q 89.232 14.916 90.53 15.675 A 5.403 5.403 0 0 0 91.555 16.14 Z M 93.456 14.674 A 4.123 4.123 0 0 0 94.606 14.522 A 3.08 3.08 0 0 0 96.162 13.497 A 4.137 4.137 0 0 0 97.002 11.717 A 5.963 5.963 0 0 0 97.13 10.45 A 4.703 4.703 0 0 0 96.861 8.847 A 4.403 4.403 0 0 0 96.646 8.349 A 4.223 4.223 0 0 0 95.728 7.124 A 3.998 3.998 0 0 0 95.337 6.809 Q 94.512 6.226 93.456 6.226 Q 91.718 6.226 90.75 7.37 Q 89.819 8.471 89.783 10.263 A 7.232 7.232 0 0 0 89.782 10.406 Q 89.782 11.55 90.266 12.529 A 4.276 4.276 0 0 0 91.043 13.638 A 3.878 3.878 0 0 0 91.575 14.091 Q 92.4 14.674 93.456 14.674 Z" id="9" vector-effect="non-scaling-stroke"/><path d="M 103.774 16.17 L 101.794 16.17 L 101.794 4.73 L 103.708 4.73 L 103.708 6.644 Q 104.324 5.72 105.281 5.093 A 3.81 3.81 0 0 1 106.844 4.516 A 4.978 4.978 0 0 1 107.558 4.466 A 5.109 5.109 0 0 1 108.672 4.58 Q 109.793 4.831 110.451 5.632 A 4.049 4.049 0 0 1 111.244 7.255 Q 111.387 7.837 111.405 8.516 A 7.428 7.428 0 0 1 111.408 8.712 L 111.408 16.17 L 109.428 16.17 L 109.428 8.932 A 4.238 4.238 0 0 0 109.353 8.109 Q 109.218 7.431 108.845 6.952 A 1.887 1.887 0 0 0 107.464 6.214 A 2.653 2.653 0 0 0 107.228 6.204 A 2.887 2.887 0 0 0 105.721 6.636 A 3.818 3.818 0 0 0 105.314 6.919 Q 104.412 7.634 103.774 8.602 L 103.774 16.17 Z" id="10" vector-effect="non-scaling-stroke"/><path d="M 115.258 12.232 L 115.258 6.864 L 113.278 6.864 L 113.278 5.148 L 115.302 5.148 L 115.72 1.54 L 117.238 1.54 L 117.238 5.148 L 120.406 5.148 L 120.406 6.864 L 117.238 6.864 L 117.238 12.386 A 4.743 4.743 0 0 0 117.275 13.001 Q 117.363 13.672 117.661 14.043 A 1.222 1.222 0 0 0 117.777 14.168 Q 118.316 14.674 119.064 14.674 Q 119.614 14.674 120.109 14.498 A 5.661 5.661 0 0 0 120.808 14.197 A 5.009 5.009 0 0 0 121.022 14.08 L 121.572 15.664 Q 121.132 15.928 120.384 16.181 Q 119.636 16.434 118.822 16.434 A 4.032 4.032 0 0 1 117.682 16.281 A 3.065 3.065 0 0 1 116.215 15.345 Q 115.258 14.256 115.258 12.232 Z" id="11" vector-effect="non-scaling-stroke"/><path d="M 130.944 5.654 L 130.944 4.73 L 132.748 4.73 L 132.748 13.398 A 2.673 2.673 0 0 0 132.77 13.758 Q 132.827 14.172 133.026 14.382 A 0.652 0.652 0 0 0 133.155 14.487 Q 133.562 14.74 134.046 14.74 L 133.628 16.28 Q 131.516 16.28 131.076 14.564 A 4.688 4.688 0 0 1 130.392 15.318 A 6.27 6.27 0 0 1 129.701 15.851 Q 128.832 16.434 127.49 16.434 Q 126.06 16.434 124.894 15.708 A 5.048 5.048 0 0 1 123.263 14.052 A 6.143 6.143 0 0 1 123.035 13.651 A 5.99 5.99 0 0 1 122.456 11.904 A 8.062 8.062 0 0 1 122.342 10.516 A 7.291 7.291 0 0 1 122.561 8.697 A 6.153 6.153 0 0 1 123.035 7.436 Q 123.728 6.072 124.949 5.269 A 4.905 4.905 0 0 1 127.412 4.476 A 6.025 6.025 0 0 1 127.754 4.466 A 4.969 4.969 0 0 1 128.809 4.574 A 4.115 4.115 0 0 1 129.547 4.807 A 5.72 5.72 0 0 1 130.49 5.312 A 4.863 4.863 0 0 1 130.944 5.654 Z M 130.768 13.244 L 130.768 7.106 Q 130.174 6.688 129.459 6.435 Q 128.744 6.182 127.952 6.182 A 3.503 3.503 0 0 0 126.858 6.348 A 3.085 3.085 0 0 0 126.093 6.721 A 3.586 3.586 0 0 0 124.989 7.914 A 4.392 4.392 0 0 0 124.828 8.217 A 4.546 4.546 0 0 0 124.442 9.466 A 6.089 6.089 0 0 0 124.366 10.45 A 5.625 5.625 0 0 0 124.482 11.613 A 4.475 4.475 0 0 0 124.828 12.639 A 3.872 3.872 0 0 0 125.511 13.639 A 3.453 3.453 0 0 0 126.104 14.135 Q 126.918 14.674 127.93 14.674 Q 128.766 14.674 129.514 14.267 A 4.279 4.279 0 0 0 130.552 13.486 A 3.976 3.976 0 0 0 130.768 13.244 Z" id="12" vector-effect="non-scaling-stroke"/><path d="M 135.696 15.246 L 136.532 13.596 Q 137.104 14.08 137.973 14.399 A 5.296 5.296 0 0 0 139.647 14.715 A 6.042 6.042 0 0 0 139.832 14.718 A 5.965 5.965 0 0 0 140.51 14.682 Q 141.25 14.597 141.691 14.311 Q 142.318 13.904 142.318 13.266 A 1.567 1.567 0 0 0 142.249 12.794 A 1.367 1.367 0 0 0 142.087 12.452 A 1.405 1.405 0 0 0 141.883 12.211 Q 141.66 11.998 141.291 11.788 A 4.908 4.908 0 0 0 141.24 11.759 A 6.262 6.262 0 0 0 140.801 11.541 Q 140.26 11.294 139.458 11.022 A 10.256 10.256 0 0 1 138.491 10.639 Q 138.025 10.424 137.657 10.185 A 4.254 4.254 0 0 1 137.049 9.713 A 2.491 2.491 0 0 1 136.324 8.394 A 3.695 3.695 0 0 1 136.246 7.612 A 2.666 2.666 0 0 1 137.115 5.629 A 3.842 3.842 0 0 1 137.401 5.379 A 3.908 3.908 0 0 1 138.729 4.709 Q 139.291 4.542 139.966 4.49 A 8.256 8.256 0 0 1 140.602 4.466 Q 141.702 4.466 142.56 4.697 Q 143.418 4.928 144.1 5.28 L 143.55 6.908 A 5.396 5.396 0 0 0 142.743 6.52 A 6.642 6.642 0 0 0 142.197 6.336 A 5.505 5.505 0 0 0 141.211 6.15 A 7.004 7.004 0 0 0 140.514 6.116 A 4.539 4.539 0 0 0 139.868 6.159 Q 139.189 6.257 138.776 6.578 A 2.051 2.051 0 0 0 138.477 6.858 Q 138.323 7.038 138.249 7.23 A 0.996 0.996 0 0 0 138.182 7.59 A 1.083 1.083 0 0 0 138.511 8.372 A 1.558 1.558 0 0 0 138.644 8.492 Q 139.106 8.866 140.448 9.306 A 14.906 14.906 0 0 1 141.562 9.724 Q 142.866 10.278 143.484 10.912 A 2.991 2.991 0 0 1 144.339 12.946 A 3.937 3.937 0 0 1 144.342 13.112 A 3.052 3.052 0 0 1 144.108 14.326 Q 143.822 14.993 143.187 15.478 A 3.656 3.656 0 0 1 143.099 15.543 A 4.411 4.411 0 0 1 141.696 16.197 Q 141.11 16.36 140.418 16.411 A 8.893 8.893 0 0 1 139.766 16.434 A 8.798 8.798 0 0 1 138.476 16.344 A 6.809 6.809 0 0 1 137.423 16.104 Q 136.378 15.774 135.696 15.246 Z" id="13" vector-effect="non-scaling-stroke"/><path d="M 148.962 16.17 L 146.982 16.17 L 146.982 4.73 L 148.962 4.73 L 148.962 16.17 Z M 147.012 2.374 A 1.314 1.314 0 0 0 147.972 2.772 A 1.799 1.799 0 0 0 148.301 2.743 A 1.242 1.242 0 0 0 148.984 2.387 A 1.271 1.271 0 0 0 149.297 1.844 A 1.652 1.652 0 0 0 149.358 1.386 Q 149.358 0.814 148.951 0.407 A 1.623 1.623 0 0 0 148.938 0.395 A 1.333 1.333 0 0 0 147.972 0 A 1.818 1.818 0 0 0 147.608 0.035 A 1.245 1.245 0 0 0 146.96 0.374 A 1.229 1.229 0 0 0 146.636 0.953 A 1.757 1.757 0 0 0 146.586 1.386 A 1.318 1.318 0 0 0 146.694 1.918 A 1.462 1.462 0 0 0 146.993 2.354 A 1.644 1.644 0 0 0 147.012 2.374 Z" id="14" vector-effect="non-scaling-stroke"/><path d="M 154.462 16.17 L 152.482 16.17 L 152.482 4.73 L 154.396 4.73 L 154.396 6.644 Q 155.012 5.72 155.958 5.093 Q 156.904 4.466 158.114 4.466 Q 159.399 4.466 160.245 5.052 A 2.888 2.888 0 0 1 160.347 5.126 A 3.465 3.465 0 0 1 161.545 6.818 A 4.214 4.214 0 0 1 161.568 6.886 Q 162.25 5.874 163.185 5.17 A 3.447 3.447 0 0 1 164.679 4.536 A 4.718 4.718 0 0 1 165.506 4.466 Q 167.376 4.466 168.289 5.643 Q 169.202 6.82 169.202 8.712 L 169.202 16.17 L 167.222 16.17 L 167.222 8.866 A 4.189 4.189 0 0 0 167.148 8.055 Q 167.052 7.569 166.832 7.186 A 2.416 2.416 0 0 0 166.672 6.941 A 1.754 1.754 0 0 0 165.393 6.216 A 2.349 2.349 0 0 0 165.154 6.204 A 2.624 2.624 0 0 0 163.667 6.672 A 3.519 3.519 0 0 0 163.317 6.941 Q 162.47 7.678 161.832 8.668 L 161.832 16.17 L 159.852 16.17 L 159.852 8.866 A 4.189 4.189 0 0 0 159.778 8.055 Q 159.682 7.569 159.462 7.186 A 2.416 2.416 0 0 0 159.302 6.941 A 1.754 1.754 0 0 0 158.023 6.216 A 2.349 2.349 0 0 0 157.784 6.204 A 2.644 2.644 0 0 0 156.394 6.606 A 3.574 3.574 0 0 0 155.958 6.919 Q 155.1 7.634 154.462 8.602 L 154.462 16.17 Z" id="15" vector-effect="non-scaling-stroke"/></g></svg>