<svg width="215.348" height="25.06" viewBox="0 0 215.348 25.06" xmlns="http://www.w3.org/2000/svg"><g id="svgGroup" stroke-linecap="round" fill-rule="evenodd" font-size="5pt" stroke="#000" stroke-width="0.25mm" fill="green" style="stroke:#000;stroke-width:0.25mm;fill:green"><path d="M 2.66 20.58 L 0 20.58 L 0 0.98 L 2.66 0.98 L 2.66 9.352 L 12.32 9.352 L 12.32 0.98 L 14.98 0.98 L 14.98 20.58 L 12.32 20.58 L 12.32 11.648 L 2.66 11.648 L 2.66 20.58 Z" id="0" vector-effect="non-scaling-stroke"/><path d="M 22.26 20.58 L 19.74 20.58 L 19.74 6.02 L 22.26 6.02 L 22.26 20.58 Z M 19.778 3.021 A 1.672 1.672 0 0 0 21 3.528 A 2.289 2.289 0 0 0 21.419 3.492 A 1.581 1.581 0 0 0 22.288 3.038 A 1.618 1.618 0 0 0 22.687 2.347 A 2.103 2.103 0 0 0 22.764 1.764 A 2.034 2.034 0 0 0 22.764 1.741 A 1.697 1.697 0 0 0 22.246 0.518 A 2.072 2.072 0 0 0 22.23 0.502 A 1.696 1.696 0 0 0 21 0 A 2.314 2.314 0 0 0 20.536 0.044 A 1.585 1.585 0 0 0 19.712 0.476 A 1.565 1.565 0 0 0 19.3 1.213 A 2.236 2.236 0 0 0 19.236 1.764 Q 19.236 2.464 19.754 2.996 A 2.091 2.091 0 0 0 19.778 3.021 Z" id="1" vector-effect="non-scaling-stroke"/><path d="M 26.712 25.06 L 25.34 24.276 Q 26.46 22.848 27.146 21.392 A 12.606 12.606 0 0 0 27.816 19.621 A 16.363 16.363 0 0 0 28.196 18.06 L 30.66 18.76 A 9.525 9.525 0 0 1 30.101 20.986 A 8.015 8.015 0 0 1 29.33 22.484 Q 28.28 24.08 26.712 25.06 Z" id="2" vector-effect="non-scaling-stroke"/><path d="M 46.48 20.58 L 43.82 20.58 L 43.82 0.98 L 46.48 0.98 L 46.48 20.58 Z" id="4" vector-effect="non-scaling-stroke"/><path d="M 52.108 7.196 L 50.12 7.196 L 49.896 0.98 L 52.332 0.98 L 52.108 7.196 Z" id="5" vector-effect="non-scaling-stroke"/><path d="M 57.96 20.58 L 55.44 20.58 L 55.44 6.02 L 57.876 6.02 L 57.876 8.456 Q 58.66 7.28 59.864 6.482 Q 61.068 5.684 62.608 5.684 A 5.878 5.878 0 0 1 63.845 5.807 Q 64.681 5.987 65.32 6.43 A 3.676 3.676 0 0 1 65.45 6.524 A 4.41 4.41 0 0 1 66.975 8.677 A 5.362 5.362 0 0 1 67.004 8.764 Q 67.872 7.476 69.062 6.58 A 4.387 4.387 0 0 1 70.963 5.773 A 6.005 6.005 0 0 1 72.016 5.684 A 6.002 6.002 0 0 1 73.385 5.83 Q 74.759 6.152 75.558 7.182 A 5.318 5.318 0 0 1 76.513 9.218 Q 76.72 10.072 76.72 11.088 L 76.72 20.58 L 74.2 20.58 L 74.2 11.284 A 5.332 5.332 0 0 0 74.106 10.251 Q 73.984 9.634 73.704 9.145 A 3.075 3.075 0 0 0 73.5 8.834 A 2.233 2.233 0 0 0 71.872 7.911 A 2.99 2.99 0 0 0 71.568 7.896 A 3.339 3.339 0 0 0 69.675 8.492 A 4.479 4.479 0 0 0 69.23 8.834 Q 68.152 9.772 67.34 11.032 L 67.34 20.58 L 64.82 20.58 L 64.82 11.284 A 5.332 5.332 0 0 0 64.726 10.251 Q 64.604 9.634 64.324 9.145 A 3.075 3.075 0 0 0 64.12 8.834 A 2.233 2.233 0 0 0 62.492 7.911 A 2.99 2.99 0 0 0 62.188 7.896 A 3.366 3.366 0 0 0 60.419 8.408 A 4.548 4.548 0 0 0 59.864 8.806 Q 58.772 9.716 57.96 10.948 L 57.96 20.58 Z" id="6" vector-effect="non-scaling-stroke"/><path d="M 92.26 20.58 L 89.74 20.58 L 89.74 0.98 L 93.464 0.98 L 98.896 13.384 L 104.244 0.98 L 108.052 0.98 L 108.052 20.58 L 105.392 20.58 L 105.392 4.368 L 100.156 16.156 L 97.524 16.156 L 92.26 4.368 L 92.26 20.58 Z" id="8" vector-effect="non-scaling-stroke"/><path d="M 118.944 20.916 Q 116.872 20.916 115.22 19.95 Q 113.568 18.984 112.63 17.262 A 7.686 7.686 0 0 1 111.766 14.519 A 9.75 9.75 0 0 1 111.692 13.3 A 9.802 9.802 0 0 1 111.874 11.365 A 7.286 7.286 0 0 1 112.644 9.24 Q 113.596 7.532 115.248 6.608 A 7.327 7.327 0 0 1 118.502 5.695 A 8.771 8.771 0 0 1 118.944 5.684 A 7.767 7.767 0 0 1 121.326 6.041 A 6.958 6.958 0 0 1 122.626 6.608 Q 124.264 7.532 125.23 9.226 A 7.223 7.223 0 0 1 126.06 11.59 A 9.672 9.672 0 0 1 126.196 13.244 A 9.572 9.572 0 0 1 125.987 15.291 A 7.351 7.351 0 0 1 125.244 17.29 Q 124.292 19.012 122.654 19.964 A 7.072 7.072 0 0 1 119.581 20.893 A 8.603 8.603 0 0 1 118.944 20.916 Z M 118.944 18.676 A 5.248 5.248 0 0 0 120.407 18.483 A 3.92 3.92 0 0 0 122.388 17.178 Q 123.62 15.68 123.62 13.3 A 5.985 5.985 0 0 0 123.277 11.26 A 5.604 5.604 0 0 0 123.004 10.626 A 5.375 5.375 0 0 0 121.836 9.067 A 5.088 5.088 0 0 0 121.338 8.666 Q 120.288 7.924 118.944 7.924 Q 116.732 7.924 115.5 9.38 A 5.006 5.006 0 0 0 114.471 11.445 Q 114.268 12.266 114.268 13.244 Q 114.268 14.7 114.884 15.946 A 5.442 5.442 0 0 0 115.872 17.357 A 4.936 4.936 0 0 0 116.55 17.934 Q 117.6 18.676 118.944 18.676 Z" id="9" vector-effect="non-scaling-stroke"/><path d="M 132.076 20.58 L 129.556 20.58 L 129.556 6.02 L 131.992 6.02 L 131.992 8.456 Q 132.776 7.28 133.994 6.482 A 4.848 4.848 0 0 1 135.984 5.747 A 6.336 6.336 0 0 1 136.892 5.684 A 6.503 6.503 0 0 1 138.31 5.829 Q 139.246 6.038 139.929 6.55 A 3.713 3.713 0 0 1 140.574 7.168 Q 141.729 8.575 141.789 10.839 A 9.454 9.454 0 0 1 141.792 11.088 L 141.792 20.58 L 139.272 20.58 L 139.272 11.368 Q 139.272 9.8 138.53 8.848 A 2.402 2.402 0 0 0 136.773 7.909 A 3.377 3.377 0 0 0 136.472 7.896 A 3.674 3.674 0 0 0 134.554 8.446 A 4.859 4.859 0 0 0 134.036 8.806 Q 132.888 9.716 132.076 10.948 L 132.076 20.58 Z" id="10" vector-effect="non-scaling-stroke"/><path d="M 146.692 15.568 L 146.692 8.736 L 144.172 8.736 L 144.172 6.552 L 146.748 6.552 L 147.28 1.96 L 149.212 1.96 L 149.212 6.552 L 153.244 6.552 L 153.244 8.736 L 149.212 8.736 L 149.212 15.764 A 6.036 6.036 0 0 0 149.259 16.547 Q 149.371 17.401 149.751 17.873 A 1.556 1.556 0 0 0 149.898 18.032 Q 150.584 18.676 151.536 18.676 Q 152.236 18.676 152.866 18.452 A 7.205 7.205 0 0 0 153.756 18.069 A 6.375 6.375 0 0 0 154.028 17.92 L 154.728 19.936 A 5.193 5.193 0 0 1 154.275 20.176 Q 154.05 20.282 153.786 20.386 A 12.142 12.142 0 0 1 153.216 20.594 Q 152.264 20.916 151.228 20.916 A 5.131 5.131 0 0 1 149.777 20.721 A 3.902 3.902 0 0 1 147.91 19.53 A 4.512 4.512 0 0 1 147.006 17.878 Q 146.793 17.197 146.724 16.375 A 9.738 9.738 0 0 1 146.692 15.568 Z" id="11" vector-effect="non-scaling-stroke"/><path d="M 166.656 7.196 L 166.656 6.02 L 168.952 6.02 L 168.952 17.052 Q 168.952 17.931 169.306 18.304 A 0.83 0.83 0 0 0 169.47 18.438 Q 169.988 18.76 170.604 18.76 L 170.072 20.72 A 6.56 6.56 0 0 1 170.03 20.72 Q 167.41 20.703 166.837 18.586 A 3.859 3.859 0 0 1 166.824 18.536 Q 166.18 19.432 165.074 20.174 Q 164.035 20.871 162.464 20.913 A 7.618 7.618 0 0 1 162.26 20.916 Q 160.44 20.916 158.956 19.992 A 6.425 6.425 0 0 1 156.88 17.885 A 7.818 7.818 0 0 1 156.59 17.374 A 7.624 7.624 0 0 1 155.854 15.15 A 10.26 10.26 0 0 1 155.708 13.384 A 9.28 9.28 0 0 1 155.987 11.069 A 7.831 7.831 0 0 1 156.59 9.464 Q 157.472 7.728 159.026 6.706 A 6.243 6.243 0 0 1 162.161 5.696 A 7.669 7.669 0 0 1 162.596 5.684 A 6.324 6.324 0 0 1 163.938 5.822 A 5.237 5.237 0 0 1 164.878 6.118 A 7.28 7.28 0 0 1 166.078 6.76 A 6.189 6.189 0 0 1 166.656 7.196 Z M 166.432 16.856 L 166.432 9.044 Q 165.676 8.512 164.766 8.19 Q 163.856 7.868 162.848 7.868 A 4.459 4.459 0 0 0 161.456 8.079 A 3.927 3.927 0 0 0 160.482 8.554 A 4.564 4.564 0 0 0 159.077 10.073 A 5.59 5.59 0 0 0 158.872 10.458 Q 158.284 11.676 158.284 13.3 Q 158.284 14.868 158.872 16.086 Q 159.46 17.304 160.496 17.99 Q 161.532 18.676 162.82 18.676 Q 163.884 18.676 164.836 18.158 A 5.446 5.446 0 0 0 166.158 17.164 A 5.06 5.06 0 0 0 166.432 16.856 Z" id="12" vector-effect="non-scaling-stroke"/><path d="M 172.704 19.404 L 173.768 17.304 A 5.196 5.196 0 0 0 174.648 17.899 Q 175.08 18.134 175.594 18.323 A 8.411 8.411 0 0 0 175.602 18.326 A 6.74 6.74 0 0 0 177.733 18.729 A 7.69 7.69 0 0 0 177.968 18.732 Q 179.478 18.732 180.274 18.252 A 2.167 2.167 0 0 0 180.334 18.214 A 2.086 2.086 0 0 0 180.763 17.852 A 1.415 1.415 0 0 0 181.132 16.884 A 1.994 1.994 0 0 0 181.044 16.283 A 1.739 1.739 0 0 0 180.838 15.848 A 1.788 1.788 0 0 0 180.578 15.542 Q 180.294 15.27 179.825 15.003 A 6.247 6.247 0 0 0 179.76 14.966 Q 179.052 14.574 177.772 14.125 A 29.011 29.011 0 0 0 177.492 14.028 Q 176.113 13.556 175.199 12.963 A 5.414 5.414 0 0 1 174.426 12.362 A 3.171 3.171 0 0 1 173.504 10.683 A 4.702 4.702 0 0 1 173.404 9.688 A 3.394 3.394 0 0 1 174.509 7.164 A 4.89 4.89 0 0 1 174.874 6.846 Q 176.107 5.871 178.138 5.714 A 10.508 10.508 0 0 1 178.948 5.684 A 11.422 11.422 0 0 1 180.193 5.749 Q 180.839 5.82 181.404 5.969 A 7.052 7.052 0 0 1 181.44 5.978 A 10.855 10.855 0 0 1 182.598 6.358 A 8.711 8.711 0 0 1 183.4 6.72 L 182.7 8.792 Q 181.944 8.344 180.978 8.064 Q 180.012 7.784 178.836 7.784 A 5.777 5.777 0 0 0 178.014 7.839 Q 177.595 7.899 177.256 8.026 A 2.383 2.383 0 0 0 176.624 8.372 A 2.61 2.61 0 0 0 176.244 8.729 Q 176.047 8.958 175.953 9.202 A 1.268 1.268 0 0 0 175.868 9.66 A 1.378 1.378 0 0 0 176.287 10.655 A 1.983 1.983 0 0 0 176.456 10.808 A 2.766 2.766 0 0 0 176.82 11.051 Q 177.471 11.424 178.752 11.844 Q 181.148 12.643 182.289 13.588 A 4.185 4.185 0 0 1 182.616 13.888 A 3.807 3.807 0 0 1 183.704 16.477 A 5.011 5.011 0 0 1 183.708 16.688 Q 183.708 18.578 182.238 19.7 A 4.654 4.654 0 0 1 182.126 19.782 A 5.615 5.615 0 0 1 180.341 20.615 Q 179.595 20.822 178.713 20.887 A 11.318 11.318 0 0 1 177.884 20.916 A 11.197 11.197 0 0 1 176.243 20.801 A 8.665 8.665 0 0 1 174.902 20.496 Q 173.666 20.106 172.829 19.498 A 5.104 5.104 0 0 1 172.704 19.404 Z" id="13" vector-effect="non-scaling-stroke"/><path d="M 189.588 20.58 L 187.068 20.58 L 187.068 6.02 L 189.588 6.02 L 189.588 20.58 Z M 187.106 3.021 A 1.672 1.672 0 0 0 188.328 3.528 A 2.289 2.289 0 0 0 188.747 3.492 A 1.581 1.581 0 0 0 189.616 3.038 A 1.618 1.618 0 0 0 190.015 2.347 A 2.103 2.103 0 0 0 190.092 1.764 A 2.034 2.034 0 0 0 190.092 1.741 A 1.697 1.697 0 0 0 189.574 0.518 A 2.072 2.072 0 0 0 189.558 0.502 A 1.696 1.696 0 0 0 188.328 0 A 2.314 2.314 0 0 0 187.864 0.044 A 1.585 1.585 0 0 0 187.04 0.476 A 1.565 1.565 0 0 0 186.628 1.213 A 2.236 2.236 0 0 0 186.564 1.764 Q 186.564 2.464 187.082 2.996 A 2.091 2.091 0 0 0 187.106 3.021 Z" id="14" vector-effect="non-scaling-stroke"/><path d="M 196.588 20.58 L 194.068 20.58 L 194.068 6.02 L 196.504 6.02 L 196.504 8.456 Q 197.288 7.28 198.492 6.482 Q 199.696 5.684 201.236 5.684 A 5.878 5.878 0 0 1 202.473 5.807 Q 203.309 5.987 203.948 6.43 A 3.676 3.676 0 0 1 204.078 6.524 A 4.41 4.41 0 0 1 205.603 8.677 A 5.362 5.362 0 0 1 205.632 8.764 Q 206.5 7.476 207.69 6.58 A 4.387 4.387 0 0 1 209.591 5.773 A 6.005 6.005 0 0 1 210.644 5.684 A 6.002 6.002 0 0 1 212.013 5.83 Q 213.387 6.152 214.186 7.182 A 5.318 5.318 0 0 1 215.141 9.218 Q 215.348 10.072 215.348 11.088 L 215.348 20.58 L 212.828 20.58 L 212.828 11.284 A 5.332 5.332 0 0 0 212.734 10.251 Q 212.612 9.634 212.332 9.145 A 3.075 3.075 0 0 0 212.128 8.834 A 2.233 2.233 0 0 0 210.5 7.911 A 2.99 2.99 0 0 0 210.196 7.896 A 3.339 3.339 0 0 0 208.303 8.492 A 4.479 4.479 0 0 0 207.858 8.834 Q 206.78 9.772 205.968 11.032 L 205.968 20.58 L 203.448 20.58 L 203.448 11.284 A 5.332 5.332 0 0 0 203.354 10.251 Q 203.232 9.634 202.952 9.145 A 3.075 3.075 0 0 0 202.748 8.834 A 2.233 2.233 0 0 0 201.12 7.911 A 2.99 2.99 0 0 0 200.816 7.896 A 3.366 3.366 0 0 0 199.047 8.408 A 4.548 4.548 0 0 0 198.492 8.806 Q 197.4 9.716 196.588 10.948 L 196.588 20.58 Z" id="15" vector-effect="non-scaling-stroke"/></g></svg>